<?xml version="1.0" encoding="UTF-8"?>
<svg version="1.1" xmlns="http://www.w3.org/2000/svg" width="357" height="141">
<path d="M0 0 C14.85 0 29.7 0 45 0 C50.36140315 10.7228063 51.75037323 21.51819144 49.31640625 33.3125 C45.29948294 45.04658303 37.95011149 54.08059448 26.9375 59.8125 C17.67959924 64.32591917 10.74707564 64 0 64 C0 42.88 0 21.76 0 0 Z " fill="#FF0614" transform="translate(303,73)"/>
<path d="M0 0 C14.85 0 29.7 0 45 0 C50.23513672 11.77905762 52.37703052 23.15192234 47.9765625 35.6953125 C42.64943234 48.26733967 35.1152262 56.35290745 22.59375 62.10546875 C14.80277683 64.87126423 8.8179028 64 0 64 C0 42.88 0 21.76 0 0 Z " fill="#FF0512" transform="translate(194,73)"/>
<path d="M0 0 C1.77206192 0.00015919 3.54412846 0.00585754 5.31616211 0.01586914 C6.24698105 0.01728409 7.17779999 0.01869904 8.13682556 0.02015686 C11.12241777 0.02577367 14.10793615 0.03832899 17.09350586 0.05102539 C19.11238499 0.05603823 21.13126529 0.06060151 23.15014648 0.06469727 C28.11048456 0.07489952 33.07066216 0.09447157 38.03100586 0.11352539 C38.03100586 12.32352539 38.03100586 24.53352539 38.03100586 37.11352539 C30.77100586 37.11352539 23.51100586 37.11352539 16.03100586 37.11352539 C15.37100586 40.08352539 14.71100586 43.05352539 14.03100586 46.11352539 C13.57675004 47.63406706 13.09523879 49.14750203 12.55834961 50.64086914 C12.29860352 51.36983398 12.03885742 52.09879883 11.77124023 52.84985352 C11.50633789 53.57624023 11.24143555 54.30262695 10.96850586 55.05102539 C10.56535156 56.18121094 10.56535156 56.18121094 10.15405273 57.33422852 C8.20226082 62.77101547 8.20226082 62.77101547 7.03100586 65.11352539 C-4.18899414 65.11352539 -15.40899414 65.11352539 -26.96899414 65.11352539 C-23.59341724 52.7364101 -23.59341724 52.7364101 -21.90014648 48.01538086 C-21.52320648 46.95833954 -21.14626648 45.90129822 -20.75790405 44.81222534 C-20.36092316 43.71282623 -19.96394226 42.61342712 -19.55493164 41.48071289 C-19.1398233 40.32225861 -18.72471497 39.16380432 -18.29702759 37.97024536 C-17.42667319 35.5443012 -16.55428052 33.11908743 -15.67993164 30.69458008 C-14.33600034 26.96634962 -12.9997067 23.23544403 -11.66430664 19.50415039 C-10.81579544 17.14201056 -9.9668528 14.78002565 -9.11743164 12.41821289 C-8.71640228 11.29857147 -8.31537292 10.17893005 -7.90219116 9.02536011 C-7.53155548 7.99984039 -7.1609198 6.97432068 -6.77905273 5.91772461 C-6.452789 5.01158417 -6.12652527 4.10544373 -5.79037476 3.17184448 C-4.35808712 -0.41736243 -4.32101942 0.12359439 0 0 Z " fill="#FF0714" transform="translate(30.968994140625,71.886474609375)"/>
<path d="M0 0 C13.86 0 27.72 0 42 0 C54.94502036 35.80537545 54.94502036 35.80537545 60.8125 52.1875 C61.23837402 53.37311523 61.66424805 54.55873047 62.10302734 55.78027344 C62.48797363 56.85696289 62.87291992 57.93365234 63.26953125 59.04296875 C63.60573486 59.98164795 63.94193848 60.92032715 64.28833008 61.88745117 C65 64 65 64 65 65 C53.78 65 42.56 65 31 65 C27.23160065 55.95584155 24.00453694 47.27114257 21 38 C14.07 37.67 7.14 37.34 0 37 C0 24.79 0 12.58 0 0 Z " fill="#FF0613" transform="translate(73,72)"/>
<path d="M0 0 C1.29997925 0.00303635 1.29997925 0.00303635 2.6262207 0.00613403 C3.51027588 0.00517731 4.39433105 0.00422058 5.30517578 0.00323486 C7.178142 0.00255302 9.05111056 0.0044076 10.92407227 0.00857544 C13.80140458 0.01392364 16.67858078 0.0086306 19.5559082 0.00222778 C21.37101272 0.00288856 23.18611713 0.00416972 25.0012207 0.00613403 C25.86787354 0.0041098 26.73452637 0.00208557 27.62744141 0 C33.69877061 0.02399644 33.69877061 0.02399644 34.8137207 1.13894653 C34.90777212 3.13326383 34.9311532 5.13094196 34.92724609 7.12747192 C34.92717056 8.40872452 34.92709503 9.68997711 34.92701721 11.01005554 C34.9219098 12.41890501 34.91669379 13.82775409 34.91137695 15.23660278 C34.90951272 16.67006888 34.90808884 18.10353561 34.90708923 19.53700256 C34.90326443 23.3165461 34.89343447 27.09605143 34.88238525 30.87557983 C34.8703755 35.40682434 34.86576872 39.9380816 34.85993195 44.46933746 C34.85022268 51.35923376 34.83106591 58.24904616 34.8137207 65.13894653 C20.9537207 65.13894653 7.0937207 65.13894653 -7.1862793 65.13894653 C-7.22638811 49.20683616 -7.22638811 49.20683616 -7.23510742 42.43777466 C-7.24109509 37.81121683 -7.24819334 33.18467872 -7.26171875 28.55813599 C-7.2725503 24.82991253 -7.2785567 21.10171019 -7.28115654 17.37347221 C-7.28301031 15.94804997 -7.28663 14.52262895 -7.29200935 13.09721565 C-7.29922323 11.10731246 -7.29968738 9.11738819 -7.29980469 7.12747192 C-7.3020253 5.99273941 -7.30424591 4.8580069 -7.30653381 3.68888855 C-7.07484665 -1.22393168 -4.25293749 0.01680939 0 0 Z " fill="#FF0513" transform="translate(156.186279296875,71.86105346679688)"/>
<path d="M0 0 C13.86 0 27.72 0 42 0 C42.04010881 15.93211037 42.04010881 15.93211037 42.04882812 22.70117188 C42.05481579 27.3277297 42.06191404 31.95426782 42.07543945 36.58081055 C42.086271 40.30903401 42.0922774 44.03723634 42.09487724 47.76547432 C42.09673101 49.19089656 42.10035071 50.61631759 42.10573006 52.04173088 C42.11294393 54.03163408 42.11340808 56.02155834 42.11352539 58.01147461 C42.115746 59.14620712 42.11796661 60.28093964 42.12025452 61.45005798 C42 64 42 64 41 65 C38.0546443 65.10110353 35.1332244 65.13969279 32.1875 65.1328125 C30.86141724 65.13424759 30.86141724 65.13424759 29.50854492 65.13571167 C27.63557871 65.13639351 25.76261014 65.13453893 23.88964844 65.13037109 C21.01231612 65.12502289 18.13513992 65.13031593 15.2578125 65.13671875 C13.44270799 65.13605797 11.62760357 65.13477681 9.8125 65.1328125 C8.94584717 65.13483673 8.07919434 65.13686096 7.1862793 65.13894653 C1.11495009 65.11495009 1.11495009 65.11495009 0 64 C-0.09405142 62.0056827 -0.11743249 60.00800457 -0.11352539 58.01147461 C-0.11344986 56.73022202 -0.11337433 55.44896942 -0.11329651 54.12889099 C-0.10818909 52.72004152 -0.10297309 51.31119244 -0.09765625 49.90234375 C-0.09579202 48.46887766 -0.09436814 47.03541093 -0.09336853 45.60194397 C-0.08954372 41.82240043 -0.07971377 38.0428951 -0.06866455 34.2633667 C-0.0566548 29.73212219 -0.05204801 25.20086493 -0.04621124 20.66960907 C-0.03650198 13.77971278 -0.0173452 6.88990038 0 0 Z " fill="#FF000E" transform="translate(149,4)"/>
<path d="M0 0 C13.53 0 27.06 0 41 0 C41 21.45 41 42.9 41 65 C27.47 65 13.94 65 0 65 C0 43.55 0 22.1 0 0 Z " fill="#FF0614" transform="translate(259,72)"/>
<path d="M0 0 C13.53 0 27.06 0 41 0 C41 21.45 41 42.9 41 65 C27.47 65 13.94 65 0 65 C0 43.55 0 22.1 0 0 Z " fill="#FF0614" transform="translate(259,4)"/>
<path d="M0 0 C22.48561828 0 22.48561828 0 32.2734375 9.06640625 C37.7160764 15.16166927 39.38322937 22.28886224 39.27734375 30.27734375 C38.52810174 37.6325787 35.2552515 43.39063212 30.171875 48.625 C28.78378265 49.95258984 28.78378265 49.95258984 29 52 C30.62101788 53.41261529 30.62101788 53.41261529 32.6875 54.8125 C36.14335419 57.32305837 39.16055346 59.80562265 42 63 C42 63.66 42 64.32 42 65 C28.14 65 14.28 65 0 65 C0 43.55 0 22.1 0 0 Z " fill="#FF0B18" transform="translate(303,4)"/>
<path d="M0 0 C22.61142857 0 22.61142857 0 31.18359375 8.05078125 C36.82105356 14.6493049 39.39064623 21.83253678 39 30.5 C37.92680456 38.73560846 34.28742028 45.61078262 28 51 C28.67546875 51.53109375 29.3509375 52.0621875 30.046875 52.609375 C30.93890625 53.31578125 31.8309375 54.0221875 32.75 54.75 C33.63171875 55.44609375 34.5134375 56.1421875 35.421875 56.859375 C37.76923452 58.80839472 39.96003434 60.73125314 42 63 C42 63.66 42 64.32 42 65 C28.14 65 14.28 65 0 65 C0 43.55 0 22.1 0 0 Z " fill="#FF0A16" transform="translate(194,4)"/>
<path d="M0 0 C5.94 0 11.88 0 18 0 C18 21.45 18 42.9 18 65 C4.47 65 -9.06 65 -23 65 C-19.62459335 53.74864451 -19.62459335 53.74864451 -17.93115234 49.03125 C-17.55421234 47.97736084 -17.17727234 46.92347168 -16.78890991 45.83764648 C-16.39192902 44.73622314 -15.99494812 43.6347998 -15.5859375 42.5 C-15.17082916 41.34250244 -14.75572083 40.18500488 -14.32803345 38.99243164 C-13.45689832 36.56498786 -12.58451425 34.13799195 -11.7109375 31.71142578 C-10.36940797 27.98446454 -9.03205544 24.25602414 -7.6953125 20.52734375 C-6.84659708 18.16397525 -5.99764716 15.80069095 -5.1484375 13.4375 C-4.74740814 12.31988281 -4.34637878 11.20226562 -3.93319702 10.05078125 C-3.56256134 9.02210937 -3.19192566 7.9934375 -2.81005859 6.93359375 C-2.32066299 5.5731897 -2.32066299 5.5731897 -1.82138062 4.18530273 C-1 2 -1 2 0 0 Z " fill="#FF0815" transform="translate(51,4)"/>
<path d="M0 0 C5.94 0 11.88 0 18 0 C18.83978394 2.34544922 18.83978394 2.34544922 19.6965332 4.73828125 C21.78138184 10.56059933 23.8670151 16.38263609 25.95288086 22.20458984 C26.85420187 24.72044055 27.75517946 27.23641347 28.65600586 29.75244141 C29.9537054 33.37682809 31.25217106 37.00093952 32.55078125 40.625 C33.15095818 42.30203003 33.15095818 42.30203003 33.76325989 44.01293945 C34.14342758 45.07343506 34.52359528 46.13393066 34.9152832 47.2265625 C35.44939316 48.71978027 35.44939316 48.71978027 35.99429321 50.24316406 C36.88558496 52.68636635 37.82427056 55.10422538 38.77807617 57.5234375 C40 61 40 61 40 65 C26.8 65 13.6 65 0 65 C0 43.55 0 22.1 0 0 Z " fill="#FF0614" transform="translate(73,4)"/>
<path d="M0 0 C0.66 0 1.32 0 2 0 C2 20.79 2 41.58 2 63 C14.54 63 27.08 63 40 63 C40 42.21 40 21.42 40 0 C40.66 0 41.32 0 42 0 C42.02312684 8.32728947 42.04091683 16.65456563 42.05181217 24.98187923 C42.05704026 28.84820118 42.06413654 32.71450121 42.07543945 36.58081055 C42.086271 40.30903401 42.0922774 44.03723634 42.09487724 47.76547432 C42.09673101 49.19089656 42.10035071 50.61631759 42.10573006 52.04173088 C42.11294393 54.03163408 42.11340808 56.02155834 42.11352539 58.01147461 C42.115746 59.14620712 42.11796661 60.28093964 42.12025452 61.45005798 C42 64 42 64 41 65 C38.0546443 65.10110353 35.1332244 65.13969279 32.1875 65.1328125 C30.86141724 65.13424759 30.86141724 65.13424759 29.50854492 65.13571167 C27.63557871 65.13639351 25.76261014 65.13453893 23.88964844 65.13037109 C21.01231612 65.12502289 18.13513992 65.13031593 15.2578125 65.13671875 C13.44270799 65.13605797 11.62760357 65.13477681 9.8125 65.1328125 C8.94584717 65.13483673 8.07919434 65.13686096 7.1862793 65.13894653 C1.11495009 65.11495009 1.11495009 65.11495009 0 64 C-0.09405142 62.0056827 -0.11743249 60.00800457 -0.11352539 58.01147461 C-0.11344986 56.73022202 -0.11337433 55.44896942 -0.11329651 54.12889099 C-0.10818909 52.72004152 -0.10297309 51.31119244 -0.09765625 49.90234375 C-0.09579202 48.46887766 -0.09436814 47.03541093 -0.09336853 45.60194397 C-0.08954372 41.82240043 -0.07971377 38.0428951 -0.06866455 34.2633667 C-0.05844963 30.40930702 -0.05387074 26.55524118 -0.04882812 22.70117188 C-0.03809146 15.13409713 -0.02101549 7.56705391 0 0 Z " fill="#FF6767" transform="translate(149,4)"/>
<path d="M0 0 C1.6874269 0.00015917 3.37485866 0.00585622 5.06225586 0.01586914 C6.39189613 0.01799156 6.39189613 0.01799156 7.74839783 0.02015686 C10.59133215 0.02577324 13.43418892 0.03832848 16.27709961 0.05102539 C18.19962452 0.05603828 20.12215065 0.06060155 22.04467773 0.06469727 C26.7680151 0.07574798 31.49129419 0.09302356 36.21459961 0.11352539 C35.88459961 0.77352539 35.55459961 1.43352539 35.21459961 2.11352539 C22.67459961 2.11352539 10.13459961 2.11352539 -2.78540039 2.11352539 C-2.78540039 22.90352539 -2.78540039 43.69352539 -2.78540039 65.11352539 C-3.44540039 65.11352539 -4.10540039 65.11352539 -4.78540039 65.11352539 C-4.80852723 56.78623592 -4.82631722 48.45895976 -4.83721256 40.13164616 C-4.84244065 36.26532422 -4.84953693 32.39902418 -4.86083984 28.53271484 C-4.87167139 24.80449138 -4.87767779 21.07628905 -4.88027763 17.34805107 C-4.8821314 15.92262883 -4.8857511 14.4972078 -4.89113045 13.07179451 C-4.89834432 11.08189131 -4.89880847 9.09196705 -4.89892578 7.10205078 C-4.90114639 5.96731827 -4.903367 4.83258575 -4.90565491 3.66346741 C-4.71317719 -0.41793457 -4.28193944 0.12841676 0 0 Z " fill="#FF6363" transform="translate(153.785400390625,71.886474609375)"/>
</svg>
