<?xml version="1.0" encoding="UTF-8"?>
<svg version="1.1" xmlns="http://www.w3.org/2000/svg" width="976" height="575">
<path d="M0 0 C1.13807602 -0.00701431 2.27615204 -0.01402863 3.44871521 -0.02125549 C4.69855698 -0.01361176 5.94839874 -0.00596802 7.2361145 0.00190735 C8.55190994 -0.00174332 9.86770538 -0.00539398 11.22337341 -0.00915527 C14.83768689 -0.01857535 18.45172999 -0.00912475 22.0660224 0.00417686 C25.85694254 0.01550057 29.64784953 0.01138252 33.43878174 0.00942993 C39.81609498 0.00854617 46.19330212 0.0196355 52.57058716 0.03804016 C59.91572465 0.05911841 67.26070569 0.0627375 74.60586727 0.0564782 C81.69064619 0.05075222 88.77537067 0.05647389 95.86014175 0.06765175 C98.86378118 0.07226445 101.86738693 0.07318603 104.8710289 0.0710659 C108.42513224 0.06916103 111.97907995 0.07745285 115.53314781 0.0931263 C117.43786516 0.09929354 119.34260624 0.09589394 121.24732971 0.09205627 C147.15105612 0.24941458 172.99146069 8.80680179 191.52566528 27.3742218 C204.66022248 40.77382612 208.82680844 56.50901235 208.84036255 74.77241516 C208.59255019 92.60464077 201.96979352 108.03658544 189.42019653 120.71406555 C182.43981914 127.1292302 174.09443827 131.44013106 165.52566528 135.3742218 C163.95171997 136.10512024 163.95171997 136.10512024 162.34597778 136.8507843 C157.91220052 138.73322853 153.32019506 139.85825073 148.65066528 140.9992218 C147.80375122 141.2157843 146.95683716 141.4323468 146.08425903 141.6554718 C145.24250122 141.86429993 144.40074341 142.07312805 143.53347778 142.2882843 C142.78727173 142.4734259 142.04106567 142.6585675 141.27224731 142.84931946 C132.82982293 144.46276056 124.49344527 144.51240975 115.92776489 144.48774719 C114.57670087 144.4874646 113.22563669 144.48762446 111.87457275 144.4881897 C108.23264619 144.48847487 104.59075303 144.48262366 100.94883418 144.47561574 C97.13318348 144.46933533 93.3175319 144.46877471 89.50187683 144.46759033 C82.28793669 144.46449078 75.07401183 144.45629604 67.86007839 144.44624084 C59.64237398 144.43503684 51.42466881 144.42955848 43.20695865 144.42454541 C26.31318538 144.4141122 9.41942695 144.39653955 -7.47433472 144.3742218 C-7.7669519 144.98145081 -8.05956909 145.58867981 -8.36105347 146.21430969 C-9.79120418 148.98899026 -11.58570878 151.32615516 -13.47433472 153.8117218 C-13.86878784 154.33250305 -14.26324097 154.8532843 -14.66964722 155.3898468 C-18.00045141 159.77854793 -21.36600532 164.14080776 -24.73092651 168.50337219 C-32.76520233 178.92176709 -32.76520233 178.92176709 -40.41183472 189.6242218 C-41.09245972 190.5317218 -41.77308472 191.4392218 -42.47433472 192.3742218 C-43.13433472 192.3742218 -43.79433472 192.3742218 -44.47433472 192.3742218 C-44.47433472 160.0342218 -44.47433472 127.6942218 -44.47433472 94.3742218 C-32.02972534 94.34844055 -19.58511597 94.3226593 -6.76339722 94.2960968 C1.12073311 94.2709303 9.00483901 94.24476177 16.88894653 94.21406555 C29.40277945 94.16553025 41.91653112 94.12108469 54.43045044 94.10322571 C63.54473515 94.0901996 72.65885454 94.06321038 81.77304614 94.01960874 C86.59683752 93.99701557 91.42042516 93.98130984 96.24427414 93.98233795 C100.7899507 93.98308583 105.33517723 93.9650839 109.8807373 93.93305397 C111.54390026 93.92457516 113.2071138 93.92279127 114.87028885 93.92841911 C125.08080946 93.95835213 134.24791253 93.75363366 142.46316528 86.9367218 C148.10012168 79.93323052 148.46341655 74.24118101 147.52566528 65.3742218 C144.78590382 59.4888083 140.78986695 56.36395562 134.90409851 53.79115295 C127.70848765 51.48626378 120.13315627 51.90509861 112.65823364 51.89082336 C110.95561267 51.87691793 109.25300091 51.86184117 107.55039978 51.84568787 C102.94723979 51.80653055 98.34421058 51.78702627 93.74091029 51.77365589 C90.86179227 51.76483542 87.98270932 51.75251633 85.10360909 51.73914337 C76.08544659 51.69818969 67.06736507 51.6691489 58.04911608 51.6575377 C47.65556993 51.64407928 37.2632042 51.59133286 26.87001699 51.50453591 C18.82134497 51.43965995 10.77300509 51.40942401 2.72407442 51.40541434 C-2.07757723 51.40227399 -6.87811569 51.38463607 -11.67949104 51.33095551 C-16.19367263 51.28145863 -20.70590599 51.27506668 -25.22026253 51.30137253 C-26.87305937 51.30368046 -28.52596187 51.29069501 -30.1784935 51.26099777 C-39.14933817 50.91463711 -39.14933817 50.91463711 -47.17706108 54.31529999 C-49.21651778 56.57256866 -50.85419493 58.80534909 -52.47433472 61.3742218 C-53.45857825 62.65453568 -54.45148958 63.92831011 -55.45870972 65.19062805 C-56.38472208 66.43626086 -57.3065328 67.68502709 -58.22433472 68.9367218 C-59.25286132 70.32352898 -60.28151092 71.71024495 -61.31027222 73.09687805 C-62.0890271 74.15092834 -62.0890271 74.15092834 -62.8835144 75.22627258 C-65.52170656 78.78839882 -68.18670877 82.33034552 -70.84933472 85.8742218 C-71.79477541 87.13454232 -72.74009201 88.39495593 -73.68527222 89.6554718 C-74.12231035 90.2213844 -74.55934849 90.787297 -75.0096302 91.37035847 C-76.50247426 93.3412358 -76.50247426 93.3412358 -77.69018364 95.45389843 C-79.63132848 98.57363702 -81.13410304 100.93884201 -84.72400284 102.10503578 C-87.50185962 102.37851771 -90.18028658 102.39539494 -92.97091675 102.32661438 C-94.01565659 102.33271729 -95.06039642 102.33882019 -96.13679504 102.34510803 C-99.58633761 102.35651041 -103.03289787 102.3122434 -106.48214722 102.26875305 C-108.88863418 102.26865438 -111.29512428 102.27251322 -113.70159912 102.28015137 C-120.0398635 102.2916002 -126.37703777 102.25792766 -132.71511841 102.2122345 C-142.83718913 102.14574971 -152.95935463 102.14318584 -163.08160019 102.14891624 C-166.60463931 102.1438466 -170.12699769 102.11700027 -173.64990234 102.08706665 C-175.83372843 102.08041952 -178.01755622 102.074304 -180.2013855 102.06880188 C-181.65137688 102.04779671 -181.65137688 102.04779671 -183.13066101 102.02636719 C-198.41830957 102.04251262 -211.09457323 107.42666002 -222.17745972 117.8742218 C-231.71646415 128.25681166 -234.07692874 137.96965241 -233.78292847 151.5929718 C-233.20920167 163.70551103 -227.91313179 172.5670616 -219.09933472 180.6242218 C-208.45161735 189.15181845 -194.98814985 193.44766502 -181.39990234 193.53244019 C-179.60793678 193.54712341 -179.60793678 193.54712341 -177.7797699 193.56210327 C-175.83444618 193.57073647 -175.83444618 193.57073647 -173.849823 193.57954407 C-172.45979019 193.58913216 -171.06976024 193.59914278 -169.67973328 193.60954285 C-165.91783021 193.63649711 -162.15591472 193.65755776 -158.39396906 193.67754483 C-154.45815951 193.6994631 -150.52238784 193.72682313 -146.58660889 193.75360107 C-139.13885154 193.80344917 -131.69107308 193.84841714 -124.24327457 193.89162344 C-115.76201424 193.94106332 -107.28079193 193.99595635 -98.79956841 194.05130303 C-81.35785902 194.16500201 -63.91611429 194.27186721 -46.47433472 194.3742218 C-47.2230473 197.72452951 -48.24125041 199.68218574 -50.38839722 202.38594055 C-50.98523315 203.14455383 -51.58206909 203.90316711 -52.19699097 204.68476868 C-52.8247644 205.46916321 -53.45253784 206.25355774 -54.09933472 207.0617218 C-54.70390503 207.8267804 -55.30847534 208.59183899 -55.93136597 209.38008118 C-57.16050488 210.93550537 -58.39173414 212.48927983 -59.62496948 214.04145813 C-65.33877557 221.24877393 -70.89226545 228.56626873 -76.37472534 235.95039368 C-76.87810425 236.6252179 -77.38148315 237.30004211 -77.90011597 237.99531555 C-78.34782349 238.5978717 -78.79553101 239.20042786 -79.25680542 239.82124329 C-81.99487423 243.3136948 -81.99487423 243.3136948 -84.49014568 243.6286974 C-85.32424371 243.63075027 -86.15834173 243.63280313 -87.01771545 243.63491821 C-87.97482925 243.64200302 -88.93194305 243.64908783 -89.9180603 243.65638733 C-90.97198975 243.65390991 -92.02591919 243.6514325 -93.11178589 243.64888 C-94.21939774 243.65399094 -95.32700958 243.65910187 -96.46818542 243.66436768 C-100.15127897 243.67832999 -103.83418649 243.67730027 -107.51730347 243.67500305 C-110.07925994 243.67888968 -112.64121578 243.68322428 -115.20317078 243.68798828 C-120.58939971 243.69546716 -125.97555653 243.69528773 -131.36178589 243.68989563 C-137.55322446 243.68389139 -143.74443372 243.69607133 -149.93583316 243.7174657 C-155.91589553 243.73735805 -161.89584001 243.74023615 -167.87594032 243.73673058 C-170.4062281 243.73724106 -172.93651973 243.74242714 -175.46678734 243.7525425 C-188.46169753 243.7980675 -200.872936 243.83639693 -213.47433472 240.3742218 C-214.35670807 240.13728104 -215.23908142 239.90034027 -216.14819336 239.65621948 C-218.26386433 239.06408499 -220.3341762 238.40016776 -222.41183472 237.6867218 C-223.15562378 237.43398499 -223.89941284 237.18124817 -224.66574097 236.92085266 C-252.26950579 227.19228004 -274.42337722 208.47529223 -287.22433472 181.9367218 C-296.964746 159.4613809 -297.56227649 134.19471723 -288.7116394 111.4108429 C-279.74820821 89.83659687 -260.76124282 71.53714459 -239.56027222 62.07344055 C-233.54890608 59.66441913 -227.41439911 57.64288102 -221.22433472 55.7492218 C-220.29802246 55.45809509 -220.29802246 55.45809509 -219.35299683 55.16108704 C-217.0749036 54.49059148 -214.78246987 53.9337457 -212.47433472 53.3742218 C-211.48652008 53.11886154 -210.49870544 52.86350128 -209.48095703 52.60040283 C-195.1506762 49.47428898 -180.62551031 50.11753602 -166.04855728 50.29974937 C-161.08748217 50.35985436 -156.12661022 50.38406196 -151.16522217 50.40090942 C-149.45617099 50.40709216 -147.74711986 50.41328636 -146.03806877 50.41949177 C-145.18332395 50.42255821 -144.32857913 50.42562465 -143.44793296 50.42878401 C-131.9261644 50.47250729 -120.40540787 50.54381629 -108.88449097 50.69282532 C-101.07005095 50.79361375 -93.25699805 50.84429578 -85.44188869 50.83848268 C-81.32052863 50.83747464 -77.20287263 50.86165327 -73.08234024 50.94794273 C-55.60383129 52.24454191 -55.60383129 52.24454191 -40.14932251 46.3948822 C-37.63978296 43.59211482 -35.93456118 40.63055527 -34.39819241 37.21243382 C-32.77844519 33.9896011 -30.45716045 31.39351668 -28.16183472 28.6242218 C-25.01602497 24.62805475 -21.88676725 20.61972442 -18.77511597 16.59687805 C-18.14452271 15.78251282 -17.51392944 14.96814758 -16.86422729 14.12910461 C-15.62655383 12.52961032 -14.39064513 10.92874854 -13.15670776 9.32637024 C-12.30846436 8.23050598 -12.30846436 8.23050598 -11.44308472 7.11250305 C-10.69188354 6.13857605 -10.69188354 6.13857605 -9.92550659 5.14497375 C-9.20717651 4.26845154 -9.20717651 4.26845154 -8.47433472 3.3742218 C-8.06231245 2.85041837 -7.65029018 2.32661493 -7.22578239 1.78693867 C-4.77891458 -0.18670375 -3.12180671 -0.00052861 0 0 Z " fill="#FDFEFD" transform="translate(398.4743347167969,130.6257781982422)"/>
<path d="M0 0 C2.82072401 1.71575535 4.88841097 3.66646879 6.984375 6.20703125 C7.54125 6.84640625 8.098125 7.48578125 8.671875 8.14453125 C12.36521534 13.94835178 12.79031479 20.01478984 11.51953125 26.625 C8.78196787 37.07309693 2.96460501 44.46991955 -5.86328125 50.4609375 C-13.83520147 54.86930186 -24.43428303 54.61832357 -33.08984375 52.4296875 C-39.80245265 49.54110695 -43.5344683 44.48801734 -47.015625 38.20703125 C-49.816472 29.80449026 -48.15041904 21.743277 -44.49609375 13.90234375 C-35.75308427 -2.01500861 -16.3991842 -7.78686095 0 0 Z " fill="#F5FBF6" transform="translate(487.015625,314.79296875)"/>
<path d="M0 0 C5.81116519 3.36393924 9.09964833 6.98644499 11.25 13.4375 C11.95863431 24.92555233 11.29297959 33.37822879 3.9765625 42.55078125 C-2.26713675 49.37364717 -9.13571747 52.88224129 -18.3046875 53.7890625 C-26.55037291 54.10428991 -33.00509846 53.42456041 -39.75 48.4375 C-44.02435235 44.47714036 -46.56616009 40.49394179 -47.0859375 34.6796875 C-47.29793912 24.45324494 -46.39870219 16.85842896 -40.5625 8.1875 C-29.49838931 -2.63074157 -14.44566164 -6.72934549 0 0 Z " fill="#F6FBF6" transform="translate(681.75,314.5625)"/>
<path d="M0 0 C4.47894321 -0.11712011 8.95748714 -0.1875608 13.4375 -0.25 C14.69755859 -0.28351563 15.95761719 -0.31703125 17.25585938 -0.3515625 C26.46569882 -0.44774881 32.8647828 0.62431249 40.0625 6.5 C43.3715186 11.02692128 42.73823299 16.70700876 42 22 C40.26922076 28.10863261 36.39690556 32.70944068 31 36 C24.64085147 38.943536 19.44992931 39.38448201 12.5 39.1875 C11.5821875 39.17396484 10.664375 39.16042969 9.71875 39.14648438 C7.47853197 39.11148097 5.23959406 39.06238869 3 39 C2.85691406 40.05316406 2.71382812 41.10632813 2.56640625 42.19140625 C2.12576652 45.15432856 1.61014059 48.02272411 0.9375 50.9375 C0.628125 52.278125 0.31875 53.61875 0 55 C-3.3 55 -6.6 55 -10 55 C-9.62161984 47.7585866 -8.63361462 41.00442318 -6.890625 33.97265625 C-5.42613294 27.758505 -4.48053551 21.43042183 -3.44604492 15.13354492 C-2.58122186 9.96522893 -1.56750918 5.00209596 0 0 Z " fill="#F3FAF4" transform="translate(670,393)"/>
<path d="M0 0 C1.20785156 -0.03738281 2.41570313 -0.07476562 3.66015625 -0.11328125 C13.25575452 -0.20725338 18.77785975 1.84218877 26.0625 7.9375 C28.94950829 13.05961149 28.81547141 17.62894684 28 23.375 C26.11084993 29.49464039 22.54966658 34.07638364 17.16015625 37.56640625 C8.4986999 41.93519003 -1.57097098 40.73184826 -11 40.375 C-11.14308594 41.6125 -11.28617188 42.85 -11.43359375 44.125 C-11.92476232 48.05434857 -12.81982936 51.59845394 -14 55.375 C-17.3 55.375 -20.6 55.375 -24 55.375 C-23.731875 54.055 -23.46375 52.735 -23.1875 51.375 C-22.16159589 46.25265362 -21.20283464 41.1190238 -20.2512207 35.98242188 C-19.51576253 32.04164908 -18.75018985 28.1084926 -17.953125 24.1796875 C-17.77442871 23.29845215 -17.59573242 22.4172168 -17.41162109 21.50927734 C-17.06304631 19.7981209 -16.7119523 18.08747501 -16.35791016 16.37744141 C-15.57566844 12.53784103 -14.89053847 8.73817791 -14.4453125 4.84375 C-13.51844867 -2.37603144 -6.06172435 0.06938498 0 0 Z " fill="#F4FBF5" transform="translate(601,311.625)"/>
<path d="M0 0 C2.64 0 5.28 0 8 0 C10.59226596 4.32044327 12.443939 8.18873092 14 13 C14.80154825 15.10836288 15.61440544 17.21245501 16.4375 19.3125 C17.97627754 23.26353762 19.41883001 27.20449621 20.6875 31.25 C21.53084645 35.0556213 21.53084645 35.0556213 24 36 C24.66 34.35 25.32 32.7 26 31 C26.66 31 27.32 31 28 31 C28.27763184 30.41299316 28.55526367 29.82598633 28.84130859 29.22119141 C29.93492491 27.12474783 31.11853639 25.34615561 32.5390625 23.4609375 C33.03365967 22.80230713 33.52825684 22.14367676 34.0378418 21.46508789 C34.561604 20.77535889 35.08536621 20.08562988 35.625 19.375 C36.15971924 18.66657959 36.69443848 17.95815918 37.24536133 17.22827148 C48.09476137 2.90523863 48.09476137 2.90523863 51 0 C52.51928038 -0.07179964 54.04167482 -0.08392007 55.5625 -0.0625 C56.38878906 -0.05347656 57.21507812 -0.04445313 58.06640625 -0.03515625 C58.70449219 -0.02355469 59.34257813 -0.01195312 60 0 C59.86335937 0.68191406 59.72671875 1.36382812 59.5859375 2.06640625 C59.17250491 4.1363254 58.7612527 6.20668063 58.3515625 8.27734375 C56.90555705 15.56179054 55.4008582 22.82839083 53.82421875 30.0859375 C53.17891478 33.15036678 52.55885206 36.21600474 51.95703125 39.2890625 C51.777771 40.20212158 51.59851074 41.11518066 51.41381836 42.0559082 C51.05842368 43.87410543 50.70629907 45.69294532 50.35766602 47.51245117 C50.19580811 48.3397876 50.0339502 49.16712402 49.8671875 50.01953125 C49.72394043 50.76307861 49.58069336 51.50662598 49.43310547 52.27270508 C49 54 49 54 48 55 C45.32941149 55.14115161 42.67567762 55.04247107 40 55 C40.19616797 43.06942102 42.66947138 32.41719958 46 21 C45.34 21 44.68 21 44 21 C43.75378906 21.54527344 43.50757813 22.09054687 43.25390625 22.65234375 C38.39444042 31.75059598 30.31001305 41.68998695 23 49 C21.33382885 49.04063832 19.66611905 49.042721 18 49 C14.04792863 39.76684211 10.47851635 30.41948758 7 21 C5.45344878 22.54655122 5.54062091 24.22987295 5.1875 26.375 C4.21796566 31.9424775 3.09985967 37.47028713 1.9375 43 C1.76307373 43.83708496 1.58864746 44.67416992 1.40893555 45.53662109 C1.24176025 46.32891113 1.07458496 47.12120117 0.90234375 47.9375 C0.75273193 48.64777344 0.60312012 49.35804688 0.44897461 50.08984375 C0 52 0 52 -1 55 C-3.97 55 -6.94 55 -10 55 C-9.855625 53.741875 -9.71125 52.48375 -9.5625 51.1875 C-9.26545942 48.58330857 -8.99929353 45.98989902 -8.81640625 43.375 C-8.40778887 37.63767848 -7.44864613 32.36384025 -5.96484375 26.8125 C-4.61689404 21.48618859 -3.46975416 16.12051047 -2.3125 10.75 C-2.08594727 9.70038086 -1.85939453 8.65076172 -1.62597656 7.56933594 C-1.08246566 5.04654642 -0.54041927 2.52345331 0 0 Z " fill="#F5FBF6" transform="translate(514,312)"/>
<path d="M0 0 C1.6874269 0.00015917 3.37485866 0.00585622 5.06225586 0.01586914 C6.39189613 0.01799156 6.39189613 0.01799156 7.74839783 0.02015686 C10.59133215 0.02577324 13.43418892 0.03832848 16.27709961 0.05102539 C18.19962452 0.05603828 20.12215065 0.06060155 22.04467773 0.06469727 C26.7680151 0.07574798 31.49129419 0.09302356 36.21459961 0.11352539 C35.55459961 3.08352539 34.89459961 6.05352539 34.21459961 9.11352539 C24.31459961 9.11352539 14.41459961 9.11352539 4.21459961 9.11352539 C3.88459961 13.07352539 3.55459961 17.03352539 3.21459961 21.11352539 C2.88459961 21.77352539 2.55459961 22.43352539 2.21459961 23.11352539 C10.46459961 23.11352539 18.71459961 23.11352539 27.21459961 23.11352539 C27.21459961 25.75352539 27.21459961 28.39352539 27.21459961 31.11352539 C26.21459961 32.11352539 26.21459961 32.11352539 23.62255859 32.22705078 C22.49664307 32.22181396 21.37072754 32.21657715 20.21069336 32.21118164 C18.99575195 32.20795898 17.78081055 32.20473633 16.52905273 32.20141602 C15.2496582 32.19303711 13.97026367 32.1846582 12.65209961 32.17602539 C11.36883789 32.17151367 10.08557617 32.16700195 8.76342773 32.16235352 C5.58043939 32.15052085 2.39754199 32.13403607 -0.78540039 32.11352539 C-0.84598633 32.86118164 -0.90657227 33.60883789 -0.96899414 34.37915039 C-1.0527832 35.36399414 -1.13657227 36.34883789 -1.22290039 37.36352539 C-1.30411133 38.33805664 -1.38532227 39.31258789 -1.46899414 40.31665039 C-1.78540039 43.11352539 -1.78540039 43.11352539 -2.78540039 47.11352539 C7.11459961 47.11352539 17.01459961 47.11352539 27.21459961 47.11352539 C26.88459961 49.75352539 26.55459961 52.39352539 26.21459961 55.11352539 C13.01459961 55.11352539 -0.18540039 55.11352539 -13.78540039 55.11352539 C-13.78540039 48.62784648 -13.55739668 44.08163738 -11.84790039 38.11352539 C-10.31261487 32.4318386 -9.29957783 26.97514825 -8.78540039 21.11352539 C-8.45540039 20.78352539 -8.12540039 20.45352539 -7.78540039 20.11352539 C-7.50221756 18.71540282 -7.27196179 17.30643628 -7.06665039 15.89477539 C-6.87522461 14.62053711 -6.87522461 14.62053711 -6.67993164 13.32055664 C-6.54973633 12.42723633 -6.41954102 11.53391602 -6.28540039 10.61352539 C-6.0287511 8.85255554 -5.76852495 7.09210202 -5.50415039 5.33227539 C-5.39006836 4.54788086 -5.27598633 3.76348633 -5.15844727 2.95532227 C-4.45903444 -0.49779971 -3.79595984 0.11384207 0 0 Z " fill="#F6FBF7" transform="translate(832.785400390625,311.886474609375)"/>
<path d="M0 0 C3.63 0 7.26 0 11 0 C10.5469926 3.33413443 10.08776288 6.66721732 9.625 10 C9.49867188 10.93457031 9.37234375 11.86914062 9.2421875 12.83203125 C8.65075766 17.06075462 8.01283861 21.19984162 6.92578125 25.33203125 C5.34929386 31.57811419 4.52274609 37.48866835 7.875 43.1875 C12.31572006 45.76311764 15.98640222 45.8530359 21 45 C26.19903359 42.59304001 28.7554625 39.14832969 31 34 C32.10890138 30.10452753 32.87611337 26.16596023 33.625 22.1875 C33.82867188 21.15818359 34.03234375 20.12886719 34.2421875 19.06835938 C34.64363965 17.03407781 35.0399293 14.99876961 35.43066406 12.96240234 C36.26204435 8.63651536 37.13227425 4.31872677 38 0 C41.3 0 44.6 0 48 0 C48.19528898 5.56573604 47.55085259 9.61762926 46 15 C45.54881081 18.65909475 45.25271732 22.32229795 45 26 C44.34 26 43.68 26 43 26 C42.9175 26.94875 42.835 27.8975 42.75 28.875 C41.52464211 37.28231665 37.83662289 46.24136209 31.01953125 51.5390625 C23.52593679 56.03270876 15.42639553 56.08642206 7 55 C2.08626984 53.36449157 -0.77978713 50.76722022 -3.4375 46.375 C-6.90588248 38.88329385 -6.09781824 32.42933205 -4.625 24.5625 C-4.49867188 23.85029297 -4.37234375 23.13808594 -4.2421875 22.40429688 C-3.59035982 18.81598549 -2.84244477 15.27941314 -1.9375 11.74609375 C-1.23862517 8.9535064 -0.68026459 6.34913615 -0.375 3.5 C-0.189375 1.7675 -0.189375 1.7675 0 0 Z " fill="#F2FAF4" transform="translate(770,393)"/>
<path d="M0 0 C-0.59651306 3.02266703 -1.22669667 6.01725858 -2 9 C-6.56154465 9.25341915 -6.56154465 9.25341915 -8.703125 8.015625 C-11.99345736 6.56071613 -14.91836753 6.66025229 -18.5 6.625 C-19.8096875 6.59664063 -21.119375 6.56828125 -22.46875 6.5390625 C-26.03550521 6.70572713 -26.03550521 6.70572713 -28.4375 8.86328125 C-30.17236083 10.91823157 -30.17236083 10.91823157 -30.5 13.5625 C-30.22753119 16.09792325 -30.22753119 16.09792325 -28.29296875 17.5703125 C-25.76519325 19.14640421 -23.71730876 19.69632844 -20.8125 20.3125 C-14.74984904 21.85660681 -8.19684179 24.43451875 -4.77734375 29.984375 C-3.36253861 33.65291497 -3.29430432 37.17663494 -4.72265625 40.8671875 C-7.79486963 46.66334715 -12.08805752 50.2991004 -18.37109375 52.45703125 C-27.34725367 54.31094838 -36.73476653 53.87260819 -45.1796875 50.265625 C-47.39901503 48.72257324 -48.18235594 47.56973848 -49 45 C-47.625 41.75 -47.625 41.75 -46 39 C-43.25662271 39.61966636 -41.11497879 40.39509875 -38.5 41.5625 C-31.95334905 44.05120813 -24.92667742 43.94248934 -18.3125 41.8125 C-15.7808526 40.17504843 -15.7808526 40.17504843 -15.125 37.3125 C-15.08375 36.549375 -15.0425 35.78625 -15 35 C-18.56848854 32.27667979 -21.59736509 30.69933499 -25.9375 29.5 C-31.44522638 27.95717303 -35.92793812 26.20574329 -39.9375 21.9375 C-41.63057432 17.25664747 -41.8510975 12.90260295 -41 8 C-39.49336277 4.99224437 -37.61666541 3.08427028 -35 1 C-34.46632813 0.566875 -33.93265625 0.13375 -33.3828125 -0.3125 C-24.07098538 -6.27206936 -9.73004315 -3.4632357 0 0 Z " fill="#F3FAF3" transform="translate(744,315)"/>
<path d="M0 0 C0.53625 0.28875 1.0725 0.5775 1.625 0.875 C1.07776317 4.24962715 0.5701 5.95735 -1.375 8.875 C-3.355 8.545 -5.335 8.215 -7.375 7.875 C-7.375 7.215 -7.375 6.555 -7.375 5.875 C-9.93991456 5.93528001 -12.49921757 6.02237947 -15.0625 6.125 C-15.78373047 6.13917969 -16.50496094 6.15335937 -17.24804688 6.16796875 C-22.12643681 6.39072628 -24.88154277 7.16656079 -28.375 10.875 C-29.26093998 14.01363704 -29.26093998 14.01363704 -29.375 16.875 C-28.859375 16.978125 -28.34375 17.08125 -27.8125 17.1875 C-24.52934837 18.11351713 -21.50613677 19.52537208 -18.375 20.875 C-17.405625 21.16375 -16.43625 21.4525 -15.4375 21.75 C-10.16275291 23.6876622 -5.52039385 26.15690923 -2.375 30.875 C-1.56914983 35.72706628 -1.60260613 40.43108935 -4.25 44.6875 C-8.83353895 50.03074154 -14.43037053 52.73868958 -21.41796875 53.3203125 C-29.98862663 53.69169485 -37.61008158 52.8370178 -45.375 48.875 C-46.375 47.875 -46.375 47.875 -46.625 45.5625 C-46.33399829 42.43423162 -45.43119793 41.18822267 -43.375 38.875 C-42.323125 39.308125 -42.323125 39.308125 -41.25 39.75 C-35.52503745 41.99020274 -30.8987249 43.16895903 -24.6875 43.1875 C-23.38425781 43.20425781 -22.08101562 43.22101563 -20.73828125 43.23828125 C-17.41455735 43.19233738 -17.41455735 43.19233738 -15.54296875 41.35546875 C-14.96482422 40.62263672 -14.96482422 40.62263672 -14.375 39.875 C-13.715 39.875 -13.055 39.875 -12.375 39.875 C-12.62495493 36.93869124 -12.62495493 36.93869124 -14.375 33.875 C-16.65832137 32.60444214 -18.96852045 31.7983429 -21.43359375 30.93359375 C-24.66076848 29.77215371 -27.71761241 28.41537464 -30.8125 26.9375 C-32.29556641 26.24333984 -32.29556641 26.24333984 -33.80859375 25.53515625 C-36.79299929 23.60460472 -37.92134938 22.09998648 -39.375 18.875 C-40.220812 14.06682547 -39.8876591 10.00712218 -37.875 5.5625 C-28.02966726 -5.02123269 -12.68582965 -6.0090772 0 0 Z " fill="#F4FBF4" transform="translate(865.375,395.125)"/>
<path d="M0 0 C4.10986146 2.43236699 6.47744103 4.70120365 8.60546875 9.05859375 C9.56283523 14.84268288 9.4946597 20.39092202 6.41796875 25.49609375 C2.62279002 30.6345099 -1.24654416 34.93474367 -7.39453125 37.05859375 C-12.99325142 37.69008626 -17.73227984 37.83035333 -22.89453125 35.43359375 C-27.8138866 30.76020617 -29.66910154 27.57947308 -30.01953125 20.74609375 C-29.79870928 14.06813268 -27.98832351 9.87304852 -23.39453125 5.05859375 C-16.78134581 -0.74538334 -8.51218577 -3.34655264 0 0 Z " fill="#15B36C" transform="translate(479.39453125,321.94140625)"/>
<path d="M0 0 C3.06962979 1.60700455 5.40019181 3.61875169 7.91015625 6 C6.63533535 8.84383123 5.45878547 11.13754018 2.91015625 13 C-0.03038041 12.53441503 -2.17857402 11.44307288 -4.71484375 9.9375 C-10.16070615 7.17407912 -15.43388152 6.96284759 -21.29296875 8.625 C-26.75770116 10.96106882 -30.1944746 14.87048788 -33.08984375 20 C-34.95037272 25.61541472 -34.81882905 31.81304411 -32.96484375 37.375 C-30.53368854 40.77861729 -28.93466263 42.24622296 -25.08984375 44 C-17.60589942 45.14071516 -12.20159507 44.31864015 -6.02734375 39.8984375 C-4.08984375 39 -4.08984375 39 -1.94921875 39.75 C-0.07952053 41.00693998 1.39707376 42.33560926 2.91015625 44 C1.65853853 47.75485316 0.45441028 48.16894128 -2.90234375 50.125 C-3.77503906 50.64320313 -4.64773438 51.16140625 -5.546875 51.6953125 C-12.91740991 55.47681582 -23.17325233 55.24342183 -31.1171875 53.234375 C-37.84801663 50.28898906 -41.5839224 45.32566849 -45.08984375 39 C-47.66141986 31.28527166 -46.85714944 23.6502768 -43.27734375 16.4375 C-41.44769542 13.1079918 -39.57046552 9.88839521 -37.08984375 7 C-36.42984375 7 -35.76984375 7 -35.08984375 7 C-35.08984375 6.34 -35.08984375 5.68 -35.08984375 5 C-33.320689 4.01780373 -31.54945806 3.03934641 -29.77734375 2.0625 C-28.79121094 1.51722656 -27.80507813 0.97195313 -26.7890625 0.41015625 C-18.84597333 -3.73956182 -8.26427129 -3.2130251 0 0 Z " fill="#F3FBF5" transform="translate(430.08984375,314)"/>
<path d="M0 0 C3.68855661 2.65609381 5.40627245 5.25768979 6.140625 9.76171875 C6.5201822 16.72999973 5.00694149 21.73705368 0.73046875 27.24609375 C-3.4909941 31.72719099 -7.70295828 34.79962319 -13.953125 35.58203125 C-19.90496984 35.66645458 -23.70282336 35.47865228 -28.26953125 31.24609375 C-31.85983621 27.46682537 -32.57814775 24.436377 -32.76953125 19.37109375 C-32.51899635 12.84102286 -31.10124441 8.3177826 -26.65625 3.49609375 C-19.03379517 -3.53481802 -9.13989232 -5.27231314 0 0 Z " fill="#14B36C" transform="translate(677.26953125,323.75390625)"/>
<path d="M0 0 C15.18 0 30.36 0 46 0 C45.67 2.97 45.34 5.94 45 9 C38.73 9 32.46 9 26 9 C26 11.31 26 13.62 26 16 C25.43823242 18.80761719 25.43823242 18.80761719 24.66796875 21.546875 C22.85269334 28.38964156 21.56405818 35.28513544 20.3125 42.25 C20.08755859 43.48363281 19.86261719 44.71726562 19.63085938 45.98828125 C19.08374825 48.99157213 18.54018924 51.99545782 18 55 C14.7 55 11.4 55 8 55 C8.57626395 46.73310241 9.87094226 38.73752596 11.52905273 30.62744141 C11.94083962 28.60862728 12.34108546 26.58775293 12.74023438 24.56640625 C13.84291633 19.09951158 14.92053122 14.19867195 17 9 C11.06 9 5.12 9 -1 9 C-0.67 6.03 -0.34 3.06 0 0 Z " fill="#F2FAF3" transform="translate(775,312)"/>
<path d="M0 0 C3.3 0 6.6 0 10 0 C9.7215625 1.35867188 9.443125 2.71734375 9.15625 4.1171875 C7.57992514 11.99603657 6.23176003 19.9162711 4.85546875 27.83203125 C4.64535156 29.02441406 4.43523438 30.21679688 4.21875 31.4453125 C4.03248047 32.51281738 3.84621094 33.58032227 3.65429688 34.68017578 C2.90487632 38.4826462 1.93997536 42.24009857 1 46 C10.24 46 19.48 46 29 46 C28 53 28 53 27 54 C24.26105915 54.08858646 21.5474673 54.11523479 18.80859375 54.09765625 C17.98875504 54.0962413 17.16891632 54.09482635 16.32423401 54.09336853 C13.69528618 54.08775289 11.06642227 54.07519779 8.4375 54.0625 C6.65950643 54.05748701 4.88151154 54.05292376 3.10351562 54.04882812 C-1.26435545 54.03777839 -5.63216348 54.02050331 -10 54 C-10.13314124 48.45200435 -9.89158708 43.30446148 -8.828125 37.83203125 C-8.70443542 37.18989182 -8.58074585 36.54775238 -8.45330811 35.88615417 C-8.19167823 34.53846201 -7.92595608 33.19155816 -7.65625 31.84545898 C-7.2546542 29.83579059 -6.86852011 27.82361498 -6.484375 25.81054688 C-4.78012734 17.04509745 -2.59253516 8.54222032 0 0 Z " fill="#F6FCF7" transform="translate(726,393)"/>
<path d="M0 0 C2.57161458 0.03255208 5.14322917 0.06510417 7.71484375 0.09765625 C6.32098236 10.10250762 4.35614962 19.92152884 2.21484375 29.78515625 C1.5990387 32.64296684 0.9851618 35.50119076 0.37109375 38.359375 C0.22551025 39.03499481 0.07992676 39.71061462 -0.07006836 40.40670776 C-1.19257945 45.62759048 -2.25667034 50.85752056 -3.28515625 56.09765625 C-6.58515625 56.09765625 -9.88515625 56.09765625 -13.28515625 56.09765625 C-13.5982818 51.60952334 -13.07345839 47.84034983 -12 43.46875 C-10.71845553 38.06641313 -9.56599281 32.65410153 -8.49609375 27.20703125 C-8.3456813 26.44367966 -8.19526886 25.68032806 -8.04029846 24.8938446 C-7.41918413 21.73404719 -6.80136082 18.57362242 -6.18652344 15.41259766 C-5.73051062 13.07258159 -5.26985531 10.73351743 -4.80859375 8.39453125 C-4.67004974 7.67489197 -4.53150574 6.95525269 -4.38876343 6.21380615 C-3.18570056 0.13614105 -3.18570056 0.13614105 0 0 Z " fill="#F3FAF4" transform="translate(760.28515625,311.90234375)"/>
<path d="M0 0 C16.10956988 -0.94392011 16.10956988 -0.94392011 21.73046875 3.37890625 C23.70090876 5.89500657 23.87150871 7.88176859 23.51171875 11.0078125 C22.61728252 14.48996881 21.49179902 16.3866498 19 19 C11.99475691 23.07997674 3.82140552 22.30039538 -4 22 C-3.32692542 16.97481209 -2.45601155 12.02835295 -1.4375 7.0625 C-1.29892578 6.37865234 -1.16035156 5.69480469 -1.01757812 4.99023438 C-0.68016936 3.32646014 -0.34034121 1.66317685 0 0 Z " fill="#19B46E" transform="translate(596,321)"/>
<path d="M0 0 C1.83111328 -0.03867187 1.83111328 -0.03867187 3.69921875 -0.078125 C8.53666465 0.36116738 11.87500919 1.81250919 15.3125 5.25 C16.01859073 8.966267 16.10812426 12.6883408 14.3671875 16.10546875 C11.75225799 19.4358035 9.30041149 21.06129561 5.3125 22.25 C2.50256055 22.38760722 -0.19751924 22.44011573 -3 22.375 C-3.74056641 22.36597656 -4.48113281 22.35695313 -5.24414062 22.34765625 C-7.05873467 22.32424213 -8.87316071 22.28837615 -10.6875 22.25 C-8.86260398 0.11112983 -8.86260398 0.11112983 0 0 Z " fill="#1CB56F" transform="translate(685.6875,400.75)"/>
<path d="M0 0 C0 0.33 0 0.66 0 1 C-0.87336911 1.00331015 -1.74673822 1.00662029 -2.64657307 1.01003075 C-23.87787497 1.09118006 -45.10910491 1.18324585 -66.34030628 1.28752708 C-76.60747087 1.33769183 -86.87462731 1.38413426 -97.1418457 1.421875 C-106.08865163 1.45477148 -115.03539508 1.49458962 -123.98213214 1.54279006 C-128.7212531 1.56807841 -133.4603325 1.58985275 -138.19950294 1.60334396 C-142.65721935 1.61614317 -147.11479339 1.63817426 -151.57243156 1.66738319 C-153.2111266 1.67647577 -154.84984457 1.6821531 -156.48856354 1.68421364 C-158.72099836 1.68752438 -160.95302661 1.70296899 -163.18537903 1.7215271 C-164.43625211 1.72705786 -165.68712519 1.73258862 -166.97590351 1.73828697 C-170.17775318 1.77118911 -170.17775318 1.77118911 -173 4 C-173 3.01 -173 2.02 -173 1 C-192.08010374 1.10723366 -211.16016717 1.21999412 -230.24019909 1.33933926 C-239.09932838 1.39462395 -247.9584617 1.44809813 -256.81762695 1.49731445 C-264.5390137 1.54021454 -272.26037136 1.5865072 -279.98171312 1.63687855 C-284.07031572 1.66343257 -288.15891274 1.68828442 -292.24754906 1.70907402 C-296.09621735 1.72869704 -299.94483054 1.7528576 -303.7934494 1.78049088 C-305.20555175 1.78983135 -306.61766616 1.79751734 -308.02978706 1.80341911 C-309.95922883 1.81173141 -311.88863903 1.8265965 -313.81803894 1.84178162 C-314.89745852 1.84823417 -315.97687811 1.85468672 -317.08900738 1.8613348 C-319.83490338 1.99213562 -322.32124099 2.41014944 -325 3 C-326.43628457 3.06266512 -327.8750555 3.08686347 -329.3125 3.0625 C-331.1378125 3.0315625 -331.1378125 3.0315625 -333 3 C-333 2.67 -333 2.34 -333 2 C-324.76369145 0.39494385 -316.85673646 -0.30635899 -308.47412109 -0.3347168 C-307.269225 -0.34634322 -306.0643289 -0.35796965 -304.8229208 -0.36994839 C-301.50693914 -0.39967057 -298.1911265 -0.42074055 -294.8750689 -0.43753481 C-292.01074084 -0.45345893 -289.14648099 -0.47615834 -286.2821992 -0.49878311 C-278.45418529 -0.56048146 -270.62614233 -0.60772476 -262.79799253 -0.6482172 C-257.019345 -0.67816573 -251.24073735 -0.71250375 -245.46212769 -0.74899292 C-163.63935625 -1.25858449 -81.8202171 -0.67454375 0 0 Z " fill="#A2DCB9" transform="translate(524,181)"/>
<path d="M0 0 C0.33 0 0.66 0 1 0 C1 32.34 1 64.68 1 98 C1.66 98.33 2.32 98.66 3 99 C1.02 100.485 1.02 100.485 -1 102 C-1 101.34 -1 100.68 -1 100 C-47.53 100 -94.06 100 -142 100 C-142 99.67 -142 99.34 -142 99 C-95.14 99 -48.28 99 0 99 C0 66.33 0 33.66 0 0 Z " fill="#7ACF9D" transform="translate(353,225)"/>
<path d="M0 0 C1.71514832 0.00169324 3.43030099 0.0007409 5.14544678 -0.00265503 C9.7940858 -0.00437518 14.44179421 0.03087765 19.09021711 0.07278872 C23.95085387 0.11031964 28.81151243 0.11382294 33.67227173 0.12094116 C42.87334578 0.13958307 52.07399162 0.18881125 61.27487719 0.2490381 C71.75117724 0.31612359 82.22749783 0.34909738 92.70395923 0.37921071 C114.25160887 0.44191084 135.79887315 0.5474332 157.34619141 0.68115234 C157.34619141 1.01115234 157.34619141 1.34115234 157.34619141 1.68115234 C156.46435842 1.68169711 155.58252542 1.68224188 154.67397022 1.68280315 C133.22494096 1.69776522 111.7761197 1.7401888 90.32720661 1.81324291 C79.95468604 1.84790786 69.58229858 1.87325041 59.2097168 1.87670898 C50.16980242 1.87974678 41.130125 1.90021244 32.09030217 1.94167691 C27.30295192 1.96302535 22.51593871 1.97559807 17.72854042 1.96730614 C13.22301668 1.95977764 8.71817651 1.97553951 4.21277809 2.00921249 C2.55880243 2.01746032 0.90475899 2.01717856 -0.74921036 2.00774956 C-3.00786475 1.99614754 -5.26427134 2.01521058 -7.52275085 2.04191589 C-8.78652904 2.04468127 -10.05030722 2.04744665 -11.35238171 2.05029583 C-15.49430662 2.84175976 -16.9951213 4.49735771 -19.65380859 7.68115234 C-20.64380859 7.35115234 -21.63380859 7.02115234 -22.65380859 6.68115234 C-17.18731412 -1.57083003 -8.92634843 -0.12290232 0 0 Z " fill="#23B36E" transform="translate(370.65380859375,181.31884765625)"/>
<path d="M0 0 C13.2 0 26.4 0 40 0 C39.67 1.65 39.34 3.3 39 5 C38.505 3.515 38.505 3.515 38 2 C25.46 2 12.92 2 0 2 C-0.33 2.99 -0.66 3.98 -1 5 C-0.67 3.35 -0.34 1.7 0 0 Z " fill="#B9E9CA" transform="translate(829,312)"/>
<path d="M0 0 C0.66 0.33 1.32 0.66 2 1 C0 4 0 4 -1.8828125 4.546875 C-7.12591439 5.02185984 -11.80009384 4.85089374 -17 4 C-17 3.67 -17 3.34 -17 3 C-16.27554688 2.95101563 -15.55109375 2.90203125 -14.8046875 2.8515625 C-9.53220362 2.44382375 -5.00420029 1.79637959 0 0 Z " fill="#36B372" transform="translate(673,365)"/>
<path d="M0 0 C0.66 0.33 1.32 0.66 2 1 C1.27683594 1.56654297 1.27683594 1.56654297 0.5390625 2.14453125 C-5.15924495 7.11019917 -6.34344579 11.59031674 -7 19 C-7.33 19 -7.66 19 -8 19 C-8.35892545 13.95510345 -8.58426255 10.14765859 -6.25 5.5625 C-4.28244749 3.32167631 -2.49984673 1.60704432 0 0 Z " fill="#C8EAD6" transform="translate(834,395)"/>
<path d="M0 0 C3.3 0 6.6 0 10 0 C9.67 1.98 9.34 3.96 9 6 C8.67 4.68 8.34 3.36 8 2 C5.36 2 2.72 2 0 2 C-0.33 2.99 -0.66 3.98 -1 5 C-0.67 3.35 -0.34 1.7 0 0 Z " fill="#BFECCE" transform="translate(758,312)"/>
<path d="M0 0 C0.33 0 0.66 0 1 0 C0.67 5.61 0.34 11.22 0 17 C-0.99 17.33 -1.98 17.66 -3 18 C-2.01 12.06 -1.02 6.12 0 0 Z " fill="#53BE87" transform="translate(516,348)"/>
<path d="M0 0 C0.66 0.33 1.32 0.66 2 1 C-1.3 4.3 -4.6 7.6 -8 11 C-8 6.67750434 -5.85084926 5.11604454 -3 2 C-2.01 1.34 -1.02 0.68 0 0 Z " fill="#D3EFDA" transform="translate(453,317)"/>
<path d="M0 0 C2.1640625 -0.29296875 2.1640625 -0.29296875 4.625 -0.1875 C5.44226563 -0.16042969 6.25953125 -0.13335937 7.1015625 -0.10546875 C8.04128906 -0.05326172 8.04128906 -0.05326172 9 0 C8.67 1.65 8.34 3.3 8 5 C7.67 4.01 7.34 3.02 7 2 C2.545 2.495 2.545 2.495 -2 3 C-1.34 2.01 -0.68 1.02 0 0 Z " fill="#B8E8C3" transform="translate(565,312)"/>
<path d="M0 0 C0.66 0.33 1.32 0.66 2 1 C2.375 8.5 2.375 8.5 -1 13 C-0.67 8.71 -0.34 4.42 0 0 Z " fill="#45C083" transform="translate(617,325)"/>
<path d="M0 0 C0.66 0.33 1.32 0.66 2 1 C-0.97 3.97 -3.94 6.94 -7 10 C-7.66 9.67 -8.32 9.34 -9 9 C-6.21000549 5.51250686 -3.74764169 2.49842779 0 0 Z " fill="#DEF2E2" transform="translate(648,317)"/>
<path d="M0 0 C1.00109515 3.31070838 1.10356134 6.30084769 1.0625 9.75 C1.05347656 10.73484375 1.04445313 11.7196875 1.03515625 12.734375 C1.02355469 13.48203125 1.01195312 14.2296875 1 15 C0.01 14.67 -0.98 14.34 -2 14 C-1.85866501 12.22880197 -1.71176792 10.45804713 -1.5625 8.6875 C-1.48128906 7.70136719 -1.40007813 6.71523438 -1.31640625 5.69921875 C-1 3 -1 3 0 0 Z " fill="#52C189" transform="translate(572,317)"/>
<path d="M0 0 C0.66 0.33 1.32 0.66 2 1 C1.0409375 1.804375 1.0409375 1.804375 0.0625 2.625 C-2.38529404 5.44367193 -2.66714612 7.33860732 -3 11 C-3.66 10.67 -4.32 10.34 -5 10 C-5.3125 7.8125 -5.3125 7.8125 -5 5 C-2.5 2.1875 -2.5 2.1875 0 0 Z " fill="#37B87D" transform="translate(718,321)"/>
<path d="M0 0 C0.99 0.33 1.98 0.66 3 1 C1.35 2.98 -0.3 4.96 -2 7 C-2.33 6.01 -2.66 5.02 -3 4 C-1.5625 1.8125 -1.5625 1.8125 0 0 Z " fill="#21B074" transform="translate(340,342)"/>
<path d="M0 0 C0 3 0 3 -1.53125 4.82421875 C-2.1809375 5.43910156 -2.830625 6.05398438 -3.5 6.6875 C-4.1496875 7.31011719 -4.799375 7.93273437 -5.46875 8.57421875 C-5.9740625 9.04472656 -6.479375 9.51523437 -7 10 C-7 6.47967572 -6.29648649 5.5614657 -4 3 C-3.34 3 -2.68 3 -2 3 C-2 2.34 -2 1.68 -2 1 C-1.34 0.67 -0.68 0.34 0 0 Z " fill="#D6F0DD" transform="translate(397,318)"/>
<path d="M0 0 C0.7734375 0.61875 0.7734375 0.61875 1.5625 1.25 C1.5625 1.58 1.5625 1.91 1.5625 2.25 C-0.7475 2.25 -3.0575 2.25 -5.4375 2.25 C-5.4375 2.91 -5.4375 3.57 -5.4375 4.25 C-6.7575 3.92 -8.0775 3.59 -9.4375 3.25 C-3.0375 -0.93461538 -3.0375 -0.93461538 0 0 Z " fill="#CBEDCB" transform="translate(428.4375,353.75)"/>
<path d="M0 0 C0.33 0.66 0.66 1.32 1 2 C-0.73397418 5.65047197 -2.19333016 7.55609075 -6 9 C-4.47291037 5.56404834 -2.40072955 2.88087546 0 0 Z " fill="#3AB57D" transform="translate(334,350)"/>
<path d="M0 0 C1.37562854 1.28965176 2.70766393 2.62689293 4 4 C4 4.66 4 5.32 4 6 C3.34 6 2.68 6 2 6 C1.67 6.66 1.34 7.32 1 8 C-0.35439668 5.29120665 -0.06501451 2.99066732 0 0 Z " fill="#27B775" transform="translate(542,190)"/>
<path d="M0 0 C0.33 0 0.66 0 1 0 C1.36923077 7.50769231 1.36923077 7.50769231 -0.5 10 C-0.995 10.33 -1.49 10.66 -2 11 C-1.125 3.375 -1.125 3.375 0 0 Z " fill="#6DC898" transform="translate(735,396)"/>
<path d="M0 0 C0.66 0.99 1.32 1.98 2 3 C-0.97 5.475 -0.97 5.475 -4 8 C-4.66 7.67 -5.32 7.34 -6 7 C-4.02 4.69 -2.04 2.38 0 0 Z " fill="#41BA7E" transform="translate(626,340)"/>
<path d="M0 0 C0.66 0.33 1.32 0.66 2 1 C2.73075648 3.3140622 3.40138258 5.64828869 4 8 C1.525 7.01 1.525 7.01 -1 6 C-0.67 4.02 -0.34 2.04 0 0 Z " fill="#61C795" transform="translate(520,332)"/>
</svg>
