<?xml version="1.0" encoding="UTF-8"?>
<svg version="1.1" xmlns="http://www.w3.org/2000/svg" width="600" height="84">
<path d="M0 0 C11.55 0 23.1 0 35 0 C36.62040865 4.81470703 38.23872811 9.63002907 39.85229492 14.44702148 C40.39901828 16.07728309 40.94682773 17.70718095 41.49584961 19.33666992 C44.39205794 27.93503727 47.23409068 36.54769465 49.85546875 45.234375 C50.06435226 45.91020126 50.27323578 46.58602753 50.4884491 47.28233337 C52.0757246 52.64458319 52.59271955 57.79139721 52.6640625 63.36328125 C53.057562 66.45179479 53.81579907 67.80554461 56 70 C59.18011138 70.46376624 61.08893958 70.54663625 63.875 68.875 C65.52854531 66.11909116 65.39365568 64.14924548 65 61 C62.86407975 57.67745739 59.64334739 57.10884486 56 56 C55 55 55 55 54.87974548 52.79173279 C54.88196609 51.81688431 54.88418671 50.84203583 54.88647461 49.83764648 C54.88655014 48.73658066 54.88662567 47.63551483 54.88670349 46.50108337 C54.89186478 45.3031868 54.89702606 44.10529022 54.90234375 42.87109375 C54.9037587 41.65172623 54.90517365 40.4323587 54.90663147 39.17604065 C54.91225033 35.2631693 54.92480604 31.35035419 54.9375 27.4375 C54.94251257 24.79231853 54.9470759 22.14713617 54.95117188 19.50195312 C54.96222589 13.00128026 54.97950317 6.50064968 55 0 C61.93 0 68.86 0 76 0 C76.02255088 10.67420075 76.040915 21.3483858 76.05181217 32.02260494 C76.05704103 36.97853922 76.06413874 41.93445642 76.07543945 46.89038086 C76.08626822 51.66898836 76.09227681 56.44757938 76.09487724 61.2261982 C76.09673151 63.05353619 76.10035216 64.88087324 76.10573006 66.70820427 C76.11294036 69.25853329 76.11399095 71.80879337 76.11352539 74.35913086 C76.11712067 75.12229614 76.12071594 75.88546143 76.12442017 76.67175293 C76.11405216 81.88594784 76.11405216 81.88594784 75 83 C72.55169574 83.08843793 70.13179401 83.11528752 67.68359375 83.09765625 C66.58701195 83.09553383 66.58701195 83.09553383 65.46827698 83.09336853 C63.12464368 83.08775408 60.78110461 83.07519922 58.4375 83.0625 C56.85221492 83.05748686 55.26692834 83.05292363 53.68164062 83.04882812 C49.7877239 83.03777997 45.89387795 83.02050572 42 83 C39.27804768 76.39535162 36.82213194 69.7549648 34.6171875 62.9609375 C34.31684601 62.03640778 34.01650452 61.11187805 33.70706177 60.15933228 C33.07812122 58.21547382 32.45134646 56.27091338 31.82666016 54.32568359 C31.19501748 52.36723481 30.55704646 50.41081517 29.91259766 48.45654297 C26.35034191 37.65327887 23.30561251 27.37813819 22.39111328 16.00634766 C22.20275454 12.82451509 22.20275454 12.82451509 20 10 C17.79274927 9.63637182 17.79274927 9.63637182 15.375 9.8125 C14.55773437 9.83957031 13.74046875 9.86664063 12.8984375 9.89453125 C12.27195313 9.92933594 11.64546875 9.96414063 11 10 C10.79375 11.258125 10.5875 12.51625 10.375 13.8125 C10.25898438 14.52019531 10.14296875 15.22789063 10.0234375 15.95703125 C9.80422152 18.31755824 9.80422152 18.31755824 12 21 C14.64 21.99 17.28 22.98 20 24 C20 43.47 20 62.94 20 83 C13.4 83 6.8 83 0 83 C0 55.61 0 28.22 0 0 Z " fill="#6B346D" transform="translate(168,0)"/>
<path d="M0 0 C10.3021875 -0.12375 10.3021875 -0.12375 20.8125 -0.25 C22.9572583 -0.28641602 25.1020166 -0.32283203 27.31176758 -0.36035156 C40.22430068 -0.48925933 50.7187176 0.31985201 60.99609375 8.9609375 C69.87331458 17.99389905 72.51504743 29.62541095 72.421875 41.94018555 C71.97023262 54.4509766 67.29933725 65.18278928 58.25 73.8125 C42.41051493 86.77207869 18.45319051 83 0 83 C0 55.61 0 28.22 0 0 Z M9 8 C7.45413124 11.09173752 7.70640479 13.59429552 8 17 C9.37283423 19.54002013 9.37283423 19.54002013 12 21 C14.67984143 21.56718974 17.25839228 21.77527806 20 22 C21 23 21 23 21.11352539 26.41821289 C21.11336628 27.93636988 21.10767226 29.45453229 21.09765625 30.97265625 C21.0962413 31.77029892 21.09482635 32.56794159 21.09336853 33.38975525 C21.08775316 35.94737435 21.07519812 38.50490718 21.0625 41.0625 C21.05748698 42.79231645 21.05292373 44.52213426 21.04882812 46.25195312 C21.03777875 50.50133553 21.02050386 54.75065312 21 59 C20.22914063 59.18175781 19.45828125 59.36351562 18.6640625 59.55078125 C17.66117187 59.80214844 16.65828125 60.05351563 15.625 60.3125 C14.62726563 60.55613281 13.62953125 60.79976562 12.6015625 61.05078125 C9.6915014 61.82193858 9.6915014 61.82193858 8 65 C7.53746785 69.62016709 7.53746785 69.62016709 9.0625 73.875 C12.08052722 75.6274029 14.53045455 75.93913078 18 76 C20.54002013 74.62716577 20.54002013 74.62716577 22 72 C22.80765878 68.35278304 22.80765878 68.35278304 23 65 C23.70125 64.97421875 24.4025 64.9484375 25.125 64.921875 C32.83797911 64.46077299 38.6700177 63.23998278 44.3125 57.75 C49.59325134 49.14433115 50.31018092 40.45976885 48.56640625 30.53125 C47.25527455 26.29653891 44.97814357 22.95751486 41.515625 20.1875 C35.83050582 17.50384126 29.19556031 17.43138355 23 17 C22.87109375 15.89527344 22.7421875 14.79054688 22.609375 13.65234375 C22.27761642 10.00802645 22.27761642 10.00802645 20.25 7.5625 C16.30041693 4.81973398 12.93058385 5.4731961 9 8 Z " fill="#6A336C" transform="translate(258,0)"/>
<path d="M0 0 C7.26 0 14.52 0 22 0 C22.01458252 1.62945557 22.02916504 3.25891113 22.04418945 4.93774414 C22.10226362 10.99672126 22.17949702 17.05533031 22.26245117 23.11401367 C22.29565743 25.73374447 22.32370266 28.35354606 22.34643555 30.97338867 C22.38005954 34.74428411 22.43238196 38.51453322 22.48828125 42.28515625 C22.49467117 43.45208511 22.5010611 44.61901398 22.50764465 45.82130432 C22.6179515 51.9546847 22.96653934 56.61131248 26 62 C28.91666328 64.48456501 32.28385188 64.35869129 36.03515625 64.25390625 C38.95627792 63.87642532 40.74314524 62.85858628 43 61 C45.05971062 57.75378264 45.26833452 55.11879964 45.31884766 51.31347656 C45.33871735 50.17259583 45.35858704 49.03171509 45.37905884 47.85626221 C45.39061005 46.63010193 45.40216125 45.40394165 45.4140625 44.140625 C45.43342865 42.88111023 45.4527948 41.62159546 45.4727478 40.32391357 C45.52238414 36.9833905 45.56366277 33.64297675 45.60089111 30.30230713 C45.64097339 26.89023952 45.69204639 23.47833824 45.7421875 20.06640625 C45.8382505 13.37770207 45.92228039 6.68894146 46 0 C53.59 0 61.18 0 69 0 C69.04964123 7.79214563 69.08583384 15.58419806 69.10986328 23.37646484 C69.11988671 26.02426763 69.13350899 28.67205944 69.15087891 31.31982422 C69.17528819 35.13772296 69.18652004 38.95547463 69.1953125 42.7734375 C69.20563507 43.94675629 69.21595764 45.12007507 69.22659302 46.32894897 C69.227952 56.40834185 68.77823076 66.02056379 62 74 C53.19933188 82.31069516 42.83265585 84.5067172 31.03125 84.27734375 C21.87415738 83.83743562 12.35720969 80.85316222 6 74 C1.99736512 68.14150684 -0.12799544 63.10175189 -0.11352539 55.96801758 C-0.11344986 54.72695755 -0.11337433 53.48589752 -0.11329651 52.20722961 C-0.10818991 50.85299642 -0.10297391 49.49876363 -0.09765625 48.14453125 C-0.09579083 46.75876415 -0.09436751 45.37299639 -0.09336853 43.98722839 C-0.0895531 40.3425209 -0.07973113 36.69785335 -0.06866455 33.05316162 C-0.0584295 29.33297262 -0.05386642 25.61277715 -0.04882812 21.89257812 C-0.03810798 14.59503178 -0.02051907 7.29752658 0 0 Z M5.5625 32.5625 C3.65712811 35.02667281 3.65712811 35.02667281 4.125 38.625 C4.70740714 42.04542055 4.70740714 42.04542055 7 44 C10.9170163 44.43522403 13.15241649 44.55092928 16.5 42.375 C18.2821682 40.03643199 18.2821682 40.03643199 17.9375 36.9375 C16.81420437 33.29703469 16.81420437 33.29703469 14 31 C10.38418138 30.46147382 8.65888511 30.57763775 5.5625 32.5625 Z M52.0625 32.0625 C50.3859371 35.11976176 50.63471023 37.5906288 51 41 C51.91666667 43.08333333 51.91666667 43.08333333 54 44 C57.4093712 44.36528977 59.88023824 44.6140629 62.9375 42.9375 C64.6140629 39.88023824 64.36528977 37.4093712 64 34 C63.08333333 31.91666667 63.08333333 31.91666667 61 31 C57.5906288 30.63471023 55.11976176 30.3859371 52.0625 32.0625 Z " fill="#6C356D" transform="translate(86,0)"/>
<path d="M0 0 C11.323125 -0.1546875 11.323125 -0.1546875 22.875 -0.3125 C25.23769043 -0.35802002 27.60038086 -0.40354004 30.03466797 -0.45043945 C31.9371601 -0.46506185 33.83966805 -0.47779836 35.7421875 -0.48828125 C36.70584229 -0.51386108 37.66949707 -0.53944092 38.66235352 -0.5657959 C47.10122286 -0.57114644 53.61334733 1.90783887 59.875 7.625 C64.85509325 15.53455987 67.31697571 23.64947246 66 33 C63.35958363 43.21140616 59.45876069 48.42987935 50.4375 53.765625 C45.10031128 56.46843211 39.86187095 56.18331295 34 56.1875 C32.64648438 56.20586914 32.64648438 56.20586914 31.265625 56.22460938 C30.39421875 56.22654297 29.5228125 56.22847656 28.625 56.23046875 C27.83351563 56.23457764 27.04203125 56.23868652 26.2265625 56.24291992 C23.69320445 55.96652834 22.14365406 55.36971512 20 54 C17.55478885 50.33218328 17.27762241 47.26546767 18 43 C19.87015094 40.56880377 21.28138345 39.35930827 24 38 C25.91449317 37.84523558 27.83187696 37.72520046 29.75 37.625 C36.31898269 37.12488788 36.31898269 37.12488788 42 34 C43.76368528 30.10519501 44.18286397 27.88107184 43.3125 23.6875 C42.15105206 20.7365343 42.15105206 20.7365343 39 19 C35.38306906 18.62153398 31.78537642 18.49372039 28.15234375 18.34375 C25 18 25 18 23 16 C22.52419612 14.6798505 22.09027502 13.34423075 21.6875 12 C20.61681755 9.04082741 20.30074366 8.20577198 17.625 6.375 C14.46442317 5.92348902 12.80808515 6.55584192 10 8 C9.14612895 11.30567489 9.14612895 11.30567489 9 15 C10.37283423 17.54002013 10.37283423 17.54002013 13 19 C15.32275177 19.40047444 17.65739357 19.7397104 20 20 C22.48288836 22.48288836 22.28583167 24.01186156 22.32226562 27.41015625 C22.31904297 28.09980469 22.31582031 28.78945313 22.3125 29.5 C22.32861328 30.18964844 22.34472656 30.87929688 22.36132812 31.58984375 C22.36328125 33.59375 22.36328125 33.59375 22 37 C18.80230264 39.13179824 16.52783506 39.63246367 12.83984375 40.33984375 C10.61509461 40.93188224 10.61509461 40.93188224 9 44 C8.5462752 47.55417758 8.53619693 49.31357146 10.5625 52.3125 C13.67021048 54.46399187 16.28468223 54.58718691 20 55 C22 57 22 57 22.22705078 59.61376953 C22.21657715 60.69255371 22.20610352 61.77133789 22.1953125 62.8828125 C22.18886719 64.04941406 22.18242187 65.21601562 22.17578125 66.41796875 C22.15902344 67.64128906 22.14226562 68.86460938 22.125 70.125 C22.11597656 71.35605469 22.10695313 72.58710937 22.09765625 73.85546875 C22.07402633 76.90372806 22.03815439 79.95188789 22 83 C14.74 83 7.48 83 0 83 C0 55.61 0 28.22 0 0 Z " fill="#6B336C" transform="translate(377,0)"/>
<path d="M0 0 C10.56 0 21.12 0 32 0 C37.77957478 17.78330701 43.48687475 35.58797797 49.09762573 53.42529297 C49.78258588 55.60023726 50.46953739 57.77455541 51.15847778 59.94824219 C52.13466157 63.03017915 53.10340793 66.11435998 54.0703125 69.19921875 C54.36672134 70.13025925 54.66313019 71.06129974 54.96852112 72.02055359 C55.23688278 72.8821962 55.50524445 73.74383881 55.78173828 74.6315918 C56.01804962 75.38192184 56.25436096 76.13225189 56.49783325 76.90531921 C57 79 57 79 57 83 C49.41 83 41.82 83 34 83 C33.154375 80.463125 32.30875 77.92625 31.4375 75.3125 C31.16736084 74.52270752 30.89722168 73.73291504 30.61889648 72.91918945 C29.35801278 69.01000514 28.40755756 65.98854743 30 62 C34.86206897 59 34.86206897 59 38 59 C39.02375082 54.59787148 39.08258987 52.04948031 37 48 C36.67 47.67 36.34 47.34 36 47 C33.21586971 47.04987856 30.44407605 47.1977635 27.6640625 47.35546875 C25 47 25 47 23.43164062 45.28710938 C21.91701111 42.86742157 21.16961937 40.80173666 20.4296875 38.05078125 C20.17316406 37.12072266 19.91664063 36.19066406 19.65234375 35.23242188 C19.39582031 34.26884766 19.13929688 33.30527344 18.875 32.3125 C18.35434875 30.39116988 17.83105504 28.47055321 17.3046875 26.55078125 C17.07765137 25.70169189 16.85061523 24.85260254 16.61669922 23.9777832 C16.17398897 22.01913525 16.17398897 22.01913525 15 21 C14.80365967 21.68102783 14.60731934 22.36205566 14.4050293 23.0637207 C13.50922861 26.1496659 12.59856011 29.23102706 11.6875 32.3125 C11.37876953 33.38435547 11.07003906 34.45621094 10.75195312 35.56054688 C10.44580078 36.58857422 10.13964844 37.61660156 9.82421875 38.67578125 C9.40789185 40.0975769 9.40789185 40.0975769 8.9831543 41.5480957 C7.97351685 44.06604675 7.14056724 45.35838757 5 47 C2.40499173 47.16645612 -0.03634357 46.93441729 -2.625 46.71484375 C-5.13646486 46.76970361 -5.13646486 46.76970361 -6.80078125 48.78515625 C-8.25568681 51.09452728 -8.25568681 51.09452728 -8.1875 54.5 C-6.85694226 58.42164386 -6.44430143 58.69031702 -2.9375 60.4375 C-1.63561897 60.98433579 -0.32572053 61.51380181 1 62 C1.65872256 69.0812675 -0.61305961 75.38558686 -3 82 C-4 83 -4 83 -6.13305664 83.11352539 C-7.04949951 83.10828857 -7.96594238 83.10305176 -8.91015625 83.09765625 C-9.89951172 83.09443359 -10.88886719 83.09121094 -11.90820312 83.08789062 C-12.94912109 83.07951172 -13.99003906 83.07113281 -15.0625 83.0625 C-16.10728516 83.05798828 -17.15207031 83.05347656 -18.22851562 83.04882812 C-20.8190666 83.03699913 -23.40950559 83.02051689 -26 83 C-25.40272805 77.99509462 -24.34927801 73.48095229 -22.80688477 68.65942383 C-22.5856192 67.96256973 -22.36435364 67.26571564 -22.13638306 66.54774475 C-21.41020189 64.26571701 -20.67601367 61.98635909 -19.94140625 59.70703125 C-19.43156517 58.11248716 -18.92212629 56.51781443 -18.41307068 54.92301941 C-17.3481347 51.59085683 -16.2794097 48.25994213 -15.20776367 44.92993164 C-13.83535849 40.66481354 -12.47084042 36.39722354 -11.10893345 32.12874317 C-10.05887378 28.83968012 -9.00548489 25.5516912 -7.95100212 22.26404381 C-7.44662079 20.6906573 -6.94308016 19.11700103 -6.44040108 17.54306984 C-5.7376909 15.34511613 -5.03071049 13.14858236 -4.32250977 10.95239258 C-3.92137466 9.70331619 -3.52023956 8.45423981 -3.10694885 7.16731262 C-2 4 -2 4 0 0 Z " fill="#6C356E" transform="translate(543,0)"/>
<path d="M0 0 C19.8 0 39.6 0 60 0 C60 5.94 60 11.88 60 18 C54.90944395 18.04586087 49.8196018 18.08570058 44.72900391 18.10986328 C42.99655735 18.11993376 41.26412784 18.13359089 39.53173828 18.15087891 C37.04455361 18.17508162 34.55759325 18.18647239 32.0703125 18.1953125 C31.29317902 18.20563507 30.51604553 18.21595764 29.71536255 18.22659302 C27.80874507 18.22699271 25.90268964 18.1223214 24 18 C22 16 22 16 21.6875 12.5625 C21.3450286 8.92282962 21.3450286 8.92282962 18.8125 6.9375 C15.16652582 5.72217527 13.44058374 6.4360983 10 8 C8.62228238 9.16475062 8.62228238 9.16475062 8.6875 12.375 C8.64672538 15.93942554 8.64672538 15.93942554 10.5625 17.875 C13.6618469 19.3054678 16.62980057 19.5631223 20 20 C22 22 22 22 22.265625 24.09375 C22.26046875 24.8878125 22.2553125 25.681875 22.25 26.5 C22.25515625 27.2940625 22.2603125 28.088125 22.265625 28.90625 C22 31 22 31 20 33 C17.7134527 33.61429629 15.42254334 34.01408303 13.09375 34.4375 C10.8002393 34.8668085 10.8002393 34.8668085 9 37 C8.49992206 40.45786015 8.49992206 40.45786015 9 44 C11.9581574 47.54978888 15.61908831 47.43210404 20 48 C22.52017426 50.52017426 22.29730377 51.51499849 22.3125 55 C22.32925781 55.886875 22.34601563 56.77375 22.36328125 57.6875 C22.24339844 58.450625 22.12351562 59.21375 22 60 C18.58446739 62.27702174 15.92969971 62.71824212 11.9609375 63.4375 C11.31382812 63.623125 10.66671875 63.80875 10 64 C8.60064987 66.79870027 8.74734595 68.90498792 9 72 C10 74 10 74 12 75 C15.03278321 75.3790979 17.05771617 75.5384479 19.75 74 C21.63307735 71.21588389 21.63307735 71.21588389 23 64 C35.21 64 47.42 64 60 64 C60 70.27 60 76.54 60 83 C40.2 83 20.4 83 0 83 C0 55.61 0 28.22 0 0 Z " fill="#6C366E" transform="translate(452,0)"/>
<path d="M0 0 C7.26 0 14.52 0 22 0 C22 27.39 22 54.78 22 83 C14.74 83 7.48 83 0 83 C0 55.61 0 28.22 0 0 Z M4 37 C3.25 40 3.25 40 4 43 C6.0098357 45.59121904 6.0098357 45.59121904 9 47 C12.54334961 47 14.25666783 46.64741834 16.9375 44.3125 C18.41325591 41.10056066 18.06444212 39.33525198 17 36 C14.87568495 33.72394816 13.55893694 33.09781396 10.5 32.5625 C7.10165277 33.15721076 5.98758966 34.20265158 4 37 Z " fill="#69326B" transform="translate(341,0)"/>
<path d="M0 0 C7.59 0 15.18 0 23 0 C23.02255088 10.67420075 23.040915 21.3483858 23.05181217 32.02260494 C23.05704103 36.97853922 23.06413874 41.93445642 23.07543945 46.89038086 C23.08626822 51.66898836 23.09227681 56.44757938 23.09487724 61.2261982 C23.09673151 63.05353619 23.10035216 64.88087324 23.10573006 66.70820427 C23.11294036 69.25853329 23.11399095 71.80879337 23.11352539 74.35913086 C23.11712067 75.12229614 23.12071594 75.88546143 23.12442017 76.67175293 C23.11405216 81.88594784 23.11405216 81.88594784 22 83 C20.45044441 83.09899523 18.89646327 83.13079524 17.34375 83.1328125 C15.93416016 83.13474609 15.93416016 83.13474609 14.49609375 83.13671875 C13.01302734 83.13091797 13.01302734 83.13091797 11.5 83.125 C10.51128906 83.12886719 9.52257812 83.13273437 8.50390625 83.13671875 C7.56417969 83.13542969 6.62445313 83.13414063 5.65625 83.1328125 C4.78806641 83.13168457 3.91988281 83.13055664 3.02539062 83.12939453 C1 83 1 83 0 82 C-0.21832989 77.60001055 -0.18579146 73.19465188 -0.18530273 68.78979492 C-0.18748751 66.57516218 -0.20563531 64.36102877 -0.22460938 62.14648438 C-0.22754356 60.74479338 -0.22952819 59.3431 -0.23046875 57.94140625 C-0.23457764 56.65951416 -0.23868652 55.37762207 -0.24291992 54.05688477 C0 51 0 51 2 49 C4.25577528 48.42214485 6.51340296 48.04962025 8.80859375 47.66015625 C11.35699609 46.89245572 12.40552804 46.11593449 14 44 C14.48034584 40.22585408 14.59589807 37.95861864 12.5625 34.6875 C9.41608105 32.61546801 6.61277855 32.08355532 2.92578125 31.4921875 C2.29027344 31.32976563 1.65476563 31.16734375 1 31 C-0.43509221 28.12981559 -0.11158506 25.66456277 -0.09765625 22.4609375 C-0.09443359 21.15898437 -0.09121094 19.85703125 -0.08789062 18.515625 C-0.07953466 17.13541601 -0.07106971 15.75520768 -0.0625 14.375 C-0.05748501 12.98698074 -0.0529221 11.59895978 -0.04882812 10.2109375 C-0.03700985 6.80727327 -0.0190739 3.4036313 0 0 Z " fill="#703B72" transform="translate(50,0)"/>
<path d="M0 0 C7.26 0 14.52 0 22 0 C22.06882314 4.23644657 22.12856436 8.47095956 22.16479492 12.70751953 C22.17989483 14.14899258 22.20037658 15.59041959 22.22631836 17.03173828 C22.2626513 19.10200343 22.27971329 21.17166207 22.29296875 23.2421875 C22.3086792 24.4885498 22.32438965 25.73491211 22.34057617 27.01904297 C22.22818604 28.00275879 22.1157959 28.98647461 22 30 C18.5962478 32.26916813 16.01789311 32.67020855 12.05859375 33.33984375 C9.6276414 33.8837067 9.6276414 33.8837067 8 37 C7.65463639 40.24641793 7.5766722 42.25124757 9.19921875 45.12109375 C11.46746058 47.48774087 12.91391207 47.6849967 16.125 48.125 C18.8203125 48.5078125 18.8203125 48.5078125 21 49 C22.48125044 51.96250087 22.12990684 54.63912895 22.1328125 57.94140625 C22.13424759 58.96571999 22.13424759 58.96571999 22.13571167 60.01072693 C22.13639223 61.45401095 22.1345466 62.89729803 22.13037109 64.34057617 C22.12501282 66.55719828 22.13032443 68.77361852 22.13671875 70.99023438 C22.13605811 72.39062545 22.13477723 73.7910164 22.1328125 75.19140625 C22.13168457 76.47217041 22.13055664 77.75293457 22.12939453 79.07250977 C22 82 22 82 21 83 C14.07 83 7.14 83 0 83 C0 55.61 0 28.22 0 0 Z " fill="#69316B" transform="translate(0,0)"/>
<path d="M0 0 C0.7031987 0.00707474 1.4063974 0.01414948 2.13090515 0.0214386 C4.36312102 0.04928913 6.59276952 0.11199805 8.82421875 0.17578125 C10.34306256 0.20087674 11.86194595 0.22368773 13.38085938 0.24414062 C17.09291515 0.29482407 20.79946615 0.3926594 24.51171875 0.48828125 C24.51171875 6.09828125 24.51171875 11.70828125 24.51171875 17.48828125 C20.04435611 17.60335356 15.58216844 17.7027802 11.11450195 17.76293945 C9.59642074 17.78802234 8.07845957 17.82209785 6.56079102 17.86547852 C4.3735591 17.92641418 2.18792836 17.9545502 0 17.9765625 C-1.31444092 18.00274658 -2.62888184 18.02893066 -3.9831543 18.0559082 C-8.3725055 17.34508829 -9.80713818 15.96842581 -12.48828125 12.48828125 C-13.11328125 8.98828125 -13.11328125 8.98828125 -12.48828125 5.48828125 C-8.68657714 0.55363974 -6.12261773 -0.1219645 0 0 Z " fill="#672F69" transform="translate(484.48828125,31.51171875)"/>
<path d="M0 0 C1.62035156 -0.02900391 1.62035156 -0.02900391 3.2734375 -0.05859375 C11.14954883 -0.00997578 11.14954883 -0.00997578 15.19140625 3.0078125 C17.09726327 5.76574815 17.91645948 7.28337936 18 10.625 C16.95452633 14.61680856 15.51552624 16.49437803 12 18.625 C8.01605124 19.95298292 4.35945725 19.84832082 0.1875 19.875 C-0.60720703 19.895625 -1.40191406 19.91625 -2.22070312 19.9375 C-7.22572028 19.97061839 -10.68944617 19.45029409 -15 16.625 C-17.11212504 13.45681244 -17.33156464 11.49280748 -17.55859375 7.7578125 C-15.27894518 -0.94630021 -7.31916299 -0.13101127 0 0 Z " fill="#6D376F" transform="translate(36,30.375)"/>
<path d="M0 0 C0.76828125 -0.01224609 1.5365625 -0.02449219 2.328125 -0.03710938 C9.59891312 -0.0559782 9.59891312 -0.0559782 12.625 2.1875 C15.07294742 5.85942113 15.33935887 8.91856028 14.625 13.1875 C12.41759319 16.15608157 11.13902627 17.01615791 7.625 18.1875 C5.16963658 18.33425735 2.70957448 18.40850698 0.25 18.4375 C-1.05710937 18.46328125 -2.36421875 18.4890625 -3.7109375 18.515625 C-7.55495748 18.1713844 -9.35994619 17.53376005 -12.375 15.1875 C-14.71668764 11.67496854 -14.87123677 10.32280644 -14.375 6.1875 C-10.24972428 -0.00041358 -7.04923529 0.00585485 0 0 Z " fill="#6E3970" transform="translate(558.375,46.8125)"/>
</svg>
