<?xml version="1.0" encoding="UTF-8"?>
<svg version="1.1" xmlns="http://www.w3.org/2000/svg" width="225" height="225">
<path d="M0 0 C0.33 0 0.66 0 1 0 C2.03590199 5.05002222 2.10251672 9.87416389 2 15 C3.50626953 15.13921875 3.50626953 15.13921875 5.04296875 15.28125 C9.19415655 15.8821759 12.65952414 17.49810822 16.3125 19.5 C17.29089844 20.03077148 17.29089844 20.03077148 18.2890625 20.57226562 C24.28518818 23.94878215 29.20449458 28.06422385 34 33 C34.63292969 33.61230469 35.26585937 34.22460938 35.91796875 34.85546875 C47.51014349 46.85708012 52.39806686 64.38454959 52.21484375 80.69140625 C51.00437418 99.33263766 42.91702656 115.04089206 29.5390625 127.8671875 C16.47399843 138.84184132 -0.15799933 144.70983096 -17.26171875 144.24609375 C-32.66804812 142.86150209 -46.57432554 137.50152245 -60.1875 130.4375 C-60.89438965 130.07382324 -61.6012793 129.71014648 -62.32958984 129.33544922 C-66.60145866 127.03838021 -69.74268663 124.59885691 -73 121 C-68.85819419 121.70332552 -65.08024124 122.9715273 -61.125 124.375 C-37.38587134 132.37295299 -12.41042814 133.36025648 10.4375 122.1875 C16.48637263 119.05513834 21.95398663 115.61164958 27 111 C27.86882812 110.22269531 28.73765625 109.44539063 29.6328125 108.64453125 C38.11156045 100.64994579 44.78434179 91.43131641 50 81 C32.18 80.67 14.36 80.34 -4 80 C-4.33 81.65 -4.66 83.3 -5 85 C-5.81685641 87.28451972 -6.67325043 89.55517417 -7.5625 91.8125 C-8.01753906 92.97394531 -8.47257812 94.13539063 -8.94140625 95.33203125 C-9.46541016 96.65267578 -9.46541016 96.65267578 -10 98 C-9.44570312 97.24203125 -8.89140625 96.4840625 -8.3203125 95.703125 C-5.97815365 92.97454937 -3.98091938 91.51156622 -0.875 89.75 C-0.00617188 89.24984375 0.86265625 88.7496875 1.7578125 88.234375 C5.56120305 86.14052236 7.71137611 85.88182886 12.1015625 85.90234375 C13.31328125 85.90556641 14.525 85.90878906 15.7734375 85.91210938 C17.04445313 85.92048828 18.31546875 85.92886719 19.625 85.9375 C20.90375 85.94201172 22.1825 85.94652344 23.5 85.95117188 C26.66671292 85.96298797 29.83333356 85.97946185 33 86 C25.1012188 102.58993225 14.21666361 113.99180517 -3 121 C-19.91597947 126.69160499 -44.88448875 130.20173309 -62 123 C-65.77583892 119.82375782 -67.82199282 116.38505445 -70 112 C-70.47308594 111.20207031 -70.94617188 110.40414062 -71.43359375 109.58203125 C-79.78342327 94.79019675 -81.34550996 77.44079302 -77.375 61.125 C-72.13837248 44.05141236 -62.35336497 30.42095906 -47 21 C-33.62557695 14.17331864 -22.68453624 12.67567895 -8 13 C-8.41507812 13.72058594 -8.83015625 14.44117188 -9.2578125 15.18359375 C-12.56827216 20.95265838 -15.85718872 26.73155952 -19.0859375 32.546875 C-25.83464775 44.69337015 -32.74646416 56.71970511 -39.86791992 68.65161133 C-46.88973292 80.43874357 -53.67820109 92.35542772 -60.44458008 104.29052734 C-61.93066265 106.87921741 -63.46427044 109.44045074 -65 112 C-33.32 112.495 -33.32 112.495 -1 113 C-0.34 111.35 0.32 109.7 1 108 C2.15468473 106.35679481 3.36471734 104.75118404 4.625 103.1875 C5.25664062 102.39730469 5.88828125 101.60710937 6.5390625 100.79296875 C7.02117187 100.20128906 7.50328125 99.60960937 8 99 C7.0409375 99.86625 7.0409375 99.86625 6.0625 100.75 C-3.31977637 107.643101 -12.5740523 108.15296325 -23.875 108.0625 C-25.47988281 108.05573242 -25.47988281 108.05573242 -27.1171875 108.04882812 C-29.74485288 108.03709748 -32.37238687 108.0198054 -35 108 C-32.6492334 97.5561677 -29.31664253 87.49190193 -25.94140625 77.34765625 C-25.34951283 75.55762786 -24.7580444 73.76745889 -24.16697693 71.97715759 C-22.61870936 67.29076146 -21.06551261 62.60601512 -19.51098633 57.92169189 C-17.02613439 50.4311585 -14.5489345 42.93809115 -12.07160759 35.44506645 C-11.21351268 32.85196042 -10.353349 30.25954842 -9.49281311 27.66725159 C-8.95658526 26.04917964 -8.42064211 24.43101332 -7.88500977 22.81274414 C-7.63219522 22.04906053 -7.37938066 21.28537691 -7.11890507 20.49855137 C-5.23722859 14.78614137 -3.46337042 9.04786955 -1.75498962 3.2809906 C-1 1 -1 1 0 0 Z M-18 67 C-17 70 -17 70 -17 70 Z M-12 67 C-11 69 -11 69 -11 69 Z M9 67 C10 70 10 70 10 70 Z M35 67 C35 68.32 35 69.64 35 71 C36.65 71 38.3 71 40 71 C39.67 70.34 39.34 69.68 39 69 C38.01 69.33 37.02 69.66 36 70 C35.67 69.01 35.34 68.02 35 67 Z M43 67 C43.99 68.485 43.99 68.485 45 70 C45 69.34 45 68.68 45 68 C45.99 67.67 46.98 67.34 48 67 C46.35 67 44.7 67 43 67 Z M-8 68 C-7 70 -7 70 -7 70 Z M2 68 C3 70 3 70 3 70 Z M-5 69 C-4.67 69.99 -4.34 70.98 -4 72 C-3.34 72.33 -2.68 72.66 -2 73 C-2 72.01 -2 71.02 -2 70 C-2.99 69.67 -3.98 69.34 -5 69 Z M13 69 C14 71 14 71 14 71 Z M24 69 C25 72 25 72 25 72 Z M-13 70 C-12 72 -12 72 -12 72 Z M-19 71 C-18 73 -18 73 -18 73 Z M-9 71 C-8 73 -8 73 -8 73 Z M5 71 C6 74 6 74 6 74 Z M8 71 C9 74 9 74 9 74 Z M19 71 C20 74 20 74 20 74 Z M27 71 C28 73 28 73 28 73 Z M34 71 C35 73 35 73 35 73 Z M43 71 C44 74 44 74 44 74 Z M-6 72 C-5 74 -5 74 -5 74 Z M12 72 C13 74 13 74 13 74 Z M23 72 C24 74 24 74 24 74 Z M38 72 C39 74 39 74 39 74 Z M-13 73 C-13 73.66 -13 74.32 -13 75 C-12.01 74.67 -11.02 74.34 -10 74 C-10.99 73.67 -11.98 73.34 -13 73 Z M-2 73 C-1 75 -1 75 -1 75 Z M-20 74 C-16 75 -16 75 -16 75 Z " fill="#345196" transform="translate(128,42)"/>
<path d="M0 0 C0.33 0 0.66 0 1 0 C2.03590199 5.05002222 2.10251672 9.87416389 2 15 C3.00417969 15.0928125 4.00835937 15.185625 5.04296875 15.28125 C9.19415655 15.8821759 12.65952414 17.49810822 16.3125 19.5 C17.29089844 20.03077148 17.29089844 20.03077148 18.2890625 20.57226562 C24.28518818 23.94878215 29.20449458 28.06422385 34 33 C34.63292969 33.61230469 35.26585937 34.22460938 35.91796875 34.85546875 C43.13970574 42.33227813 49.78712742 54.40095009 50.125 64.875 C50.08375 65.90625 50.0425 66.9375 50 68 C47.36 67.67 44.72 67.34 42 67 C42.33 68.65 42.66 70.3 43 72 C42.01 70.68 41.02 69.36 40 68 C39.67 68.66 39.34 69.32 39 70 C38.071875 70.2165625 38.071875 70.2165625 37.125 70.4375 C34.63289608 71.09717457 33.6670554 72.08288629 32 74 C32 71.69 32 69.38 32 67 C31.38125 67.495 30.7625 67.99 30.125 68.5 C28 70 28 70 26 70 C25.67 69.34 25.34 68.68 25 68 C24.67 68.66 24.34 69.32 24 70 C23.34 70 22.68 70 22 70 C22 69.34 22 68.68 22 68 C19.58354218 67.83312552 19.58354218 67.83312552 17 68 C16.34 68.66 15.68 69.32 15 70 C14.67 69.34 14.34 68.68 14 68 C13.01 69.98 12.02 71.96 11 74 C10.67 74 10.34 74 10 74 C9.67 72.35 9.34 70.7 9 69 C8.01 69.495 8.01 69.495 7 70 C6.505 69.01 6.505 69.01 6 68 C2.65747276 67.92572162 0.1964086 67.93453047 -3 69 C-3.495 68.505 -3.495 68.505 -4 68 C-4.33 69.32 -4.66 70.64 -5 72 C-5.66 72 -6.32 72 -7 72 C-7.66 71.01 -8.32 70.02 -9 69 C-9.99 68.67 -10.98 68.34 -12 68 C-12.66 70.31 -13.32 72.62 -14 75 C-14.33 74.34 -14.66 73.68 -15 73 C-15.99 73 -16.98 73 -18 73 C-18 72.34 -18 71.68 -18 71 C-19.32 70.67 -20.64 70.34 -22 70 C-21.36574647 63.70981927 -19.54050243 58.03581559 -17.54296875 52.0546875 C-17.19873367 51.00781769 -16.8544986 49.96094788 -16.49983215 48.88235474 C-15.40121429 45.54472843 -14.29467722 42.2097956 -13.1875 38.875 C-12.09477377 35.56760145 -11.00371724 32.25965748 -9.9133606 28.95147705 C-9.21405424 26.83001579 -8.51377407 24.70887526 -7.81246948 22.58807373 C-5.67428052 16.1073048 -3.61256464 9.61374505 -1.68481445 3.06689453 C-1 1 -1 1 0 0 Z M-18 67 C-17 70 -17 70 -17 70 Z " fill="#2F4C93" transform="translate(128,42)"/>
<path d="M0 0 C7.92 0.33 15.84 0.66 24 1 C22 3 22 3 19.66162109 3.22705078 C18.70852051 3.21657715 17.75541992 3.20610352 16.7734375 3.1953125 C15.2265625 3.18564453 15.2265625 3.18564453 13.6484375 3.17578125 C12.56820312 3.15902344 11.48796875 3.14226562 10.375 3.125 C9.28703125 3.11597656 8.1990625 3.10695312 7.078125 3.09765625 C4.38519848 3.07403409 1.69270745 3.04109556 -1 3 C-0.67 2.01 -0.34 1.02 0 0 Z " fill="#5D75AA" transform="translate(94,147)"/>
<path d="M0 0 C3.91121498 0.68936071 7.55508596 1.78250181 11.3125 3.0625 C12.38113281 3.42472656 13.44976562 3.78695312 14.55078125 4.16015625 C15.76314453 4.57587891 15.76314453 4.57587891 17 5 C14.56113501 7.43886499 13.41949446 7.79275791 10 8 C7.32421875 6.6015625 7.32421875 6.6015625 4.6875 4.625 C3.80449219 3.97789062 2.92148437 3.33078125 2.01171875 2.6640625 C1.34785156 2.11492187 0.68398438 1.56578125 0 1 C0 0.67 0 0.34 0 0 Z " fill="#5B73A9" transform="translate(55,163)"/>
<path d="M0 0 C0.33 0 0.66 0 1 0 C1.95261487 4.76307437 2.08333357 9.1666528 2 14 C1.54625 13.34 1.0925 12.68 0.625 12 C0.08875 11.34 -0.4475 10.68 -1 10 C-1.66 10 -2.32 10 -3 10 C-2.69201674 8.51988629 -2.378482 7.04092675 -2.0625 5.5625 C-1.88847656 4.73878906 -1.71445313 3.91507813 -1.53515625 3.06640625 C-1 1 -1 1 0 0 Z " fill="#5971A7" transform="translate(128,42)"/>
<path d="M0 0 C0.66 0.33 1.32 0.66 2 1 C2 1.66 2 2.32 2 3 C2.66 3.33 3.32 3.66 4 4 C3.67 5.32 3.34 6.64 3 8 C1.68 7.67 0.36 7.34 -1 7 C-0.67 5.68 -0.34 4.36 0 3 C-0.66 3 -1.32 3 -2 3 C-2.33 3.99 -2.66 4.98 -3 6 C-3 5.01 -3 4.02 -3 3 C-3.99 2.67 -4.98 2.34 -6 2 C-5.38125 1.855625 -4.7625 1.71125 -4.125 1.5625 C-1.96741678 1.06847775 -1.96741678 1.06847775 0 0 Z " fill="#7084B1" transform="translate(129,109)"/>
<path d="M0 0 C0.66 0 1.32 0 2 0 C2 0.66 2 1.32 2 2 C3.32 2.33 4.64 2.66 6 3 C6 3.99 6 4.98 6 6 C4.02 6.33 2.04 6.66 0 7 C-1.125 2.25 -1.125 2.25 0 0 Z " fill="#6078AB" transform="translate(141,110)"/>
<path d="M0 0 C1.98 0 3.96 0 6 0 C6 0.66 6 1.32 6 2 C6.66 2 7.32 2 8 2 C7.67 3.32 7.34 4.64 7 6 C6.01 6 5.02 6 4 6 C3.67 5.01 3.34 4.02 3 3 C1.50014391 1.33289654 1.50014391 1.33289654 0 0 Z " fill="#576FA7" transform="translate(144,110)"/>
<path d="M0 0 C2.25245881 2.68841859 3.88213958 4.64641875 5 8 C4.34 8 3.68 8 3 8 C2.34 7.34 1.68 6.68 1 6 C-0.32392972 4.98758315 -1.65599167 3.98560611 -3 3 C-2 1 -2 1 0 0 Z " fill="#657BAD" transform="translate(118,109)"/>
<path d="M0 0 C2.97 0.495 2.97 0.495 6 1 C6.33 2.65 6.66 4.3 7 6 C3.75728494 5.4409112 2.06942576 4.5867822 0 2 C0 1.34 0 0.68 0 0 Z " fill="#5F75A9" transform="translate(131,110)"/>
<path d="M0 0 C0 2.64 0 5.28 0 8 C-0.66 8 -1.32 8 -2 8 C-2 7.34 -2 6.68 -2 6 C-2.66 6 -3.32 6 -4 6 C-4 4.68 -4 3.36 -4 2 C-1 0 -1 0 0 0 Z " fill="#BBC4D8" transform="translate(160,109)"/>
<path d="M0 0 C0.99 0.33 1.98 0.66 3 1 C2.67 3.31 2.34 5.62 2 8 C1.67 7.34 1.34 6.68 1 6 C0.01 5.67 -0.98 5.34 -2 5 C-1.34 5 -0.68 5 0 5 C-0.33 4.01 -0.66 3.02 -1 2 C-0.67 1.34 -0.34 0.68 0 0 Z " fill="#21448F" transform="translate(112,109)"/>
<path d="M0 0 C0.33 0 0.66 0 1 0 C1 2.97 1 5.94 1 9 C0.67 7.68 0.34 6.36 0 5 C-0.99 5.33 -1.98 5.66 -3 6 C-1.125 1.125 -1.125 1.125 0 0 Z " fill="#5F75AA" transform="translate(178,124)"/>
<path d="" fill="#B4C0CF" transform="translate(0,0)"/>
</svg>
