<?xml version="1.0" encoding="UTF-8"?>
<svg version="1.1" xmlns="http://www.w3.org/2000/svg" width="225" height="225">
<path d="M0 0 C0.85199636 -0.01305742 1.70399271 -0.02611485 2.58180714 -0.03956795 C10.00521435 -0.02666655 15.24548244 1.95471542 21.33325195 6.24951172 C21.86982422 6.6251123 22.40639648 7.00071289 22.95922852 7.38769531 C26.06047882 9.57541942 29.10774008 11.82664498 32.1340332 14.11669922 C36.84136453 17.66336534 41.67937683 21.01443259 46.52075195 24.37451172 C58.30752459 32.60048763 58.30752459 32.60048763 63.45825195 36.37451172 C64.36833008 37.03708984 65.2784082 37.69966797 66.21606445 38.38232422 C69.29341461 41.09629724 70.23480585 43.09334368 70.58493423 47.20531178 C70.58568829 48.36505355 70.58644234 49.52479532 70.58721924 50.71968079 C70.59189921 51.69132613 70.59189921 51.69132613 70.59667373 52.68260068 C70.60464526 54.8512374 70.59833342 57.01959365 70.59204102 59.18823242 C70.59475134 60.74394901 70.5983125 62.29966432 70.60266113 63.8553772 C70.61178479 68.08071415 70.60824038 72.30595352 70.60190296 76.5312922 C70.59684016 80.95496144 70.60153545 85.37862231 70.60467529 89.80229187 C70.60831526 97.23450215 70.60351623 104.6666727 70.59399414 112.09887695 C70.58312153 120.68416832 70.58662635 129.26936461 70.59764695 137.85465366 C70.60673329 145.22888861 70.60799815 152.60309498 70.60276961 159.97733372 C70.59965578 164.3800752 70.59922421 168.78277205 70.60584259 173.18551064 C70.61163458 177.32808614 70.60758529 181.47053959 70.59605408 185.61310196 C70.59341687 187.13080455 70.59415648 188.64851746 70.59857941 190.1662159 C70.60407393 192.24374496 70.59715385 194.32088707 70.58721924 196.39839172 C70.58608816 198.139701 70.58608816 198.139701 70.58493423 199.91618824 C70.1848808 205.21456482 69.38414431 209.09609328 65.77075195 213.06201172 C58.80829521 218.18416038 48.80092302 217.73265885 40.54345703 218.2109375 C39.29000992 218.28925812 38.03656281 218.36757874 36.74513245 218.44827271 C33.32732791 218.6614897 29.90903894 218.86563995 26.49056077 219.06773233 C22.8837921 219.28215643 19.27746694 219.50382346 15.67106628 219.72433472 C9.60311674 220.09417744 3.53482909 220.45801483 -2.53369141 220.81835938 C-9.49071727 221.23154483 -16.44709144 221.65456331 -23.40319747 222.08293545 C-30.1490558 222.49808207 -36.89535785 222.90557057 -43.6418705 223.30993271 C-46.48471012 223.48047477 -49.32737177 223.65362084 -52.16991234 223.82907486 C-65.17326577 224.62903991 -78.18250908 225.39527689 -91.2109375 225.60449219 C-92.09234752 225.63168901 -92.97375753 225.65888584 -93.88187695 225.68690681 C-100.38758273 225.71930747 -103.93696786 223.86841108 -108.6862793 219.31201172 C-113.14140605 214.18716003 -117.27827519 208.88824346 -121.3112793 203.42529297 C-123.7434112 200.14614996 -126.22905558 196.91419353 -128.72924805 193.68701172 C-131.85967078 189.62338916 -134.97852758 185.55161583 -138.04174805 181.43701172 C-138.95053711 180.22078125 -138.95053711 180.22078125 -139.87768555 178.97998047 C-145.55084936 170.3215929 -146.24854665 164.01740162 -146.18432617 153.75878906 C-146.1897536 152.29937545 -146.19687973 150.83996731 -146.20556641 149.38056946 C-146.22372601 145.43641329 -146.21676388 141.49267791 -146.20405006 137.54851484 C-146.19388785 133.41267269 -146.2033243 129.27686537 -146.20959473 125.14102173 C-146.21686016 118.19925498 -146.20731082 111.25765879 -146.18823242 104.31591797 C-146.16644855 96.29731806 -146.17353032 88.27912477 -146.19553804 80.26053464 C-146.21370314 73.36518453 -146.21624549 66.46995664 -146.20578337 59.57459033 C-146.19955671 55.46084657 -146.19869025 51.34729385 -146.21192932 47.23356247 C-146.22350409 43.3673903 -146.21543301 39.5017416 -146.19235229 35.63562584 C-146.18707454 34.2190977 -146.18856305 32.80252532 -146.19740295 31.38601494 C-146.24757247 22.5287323 -146.132969 17.81736996 -139.89860535 11.44113159 C-136.70184833 9.73433825 -133.50731747 9.48850214 -129.95703125 9.18359375 C-128.77948635 9.068138 -128.77948635 9.068138 -127.57815266 8.95034981 C-124.94228792 8.69913202 -122.30523961 8.47138069 -119.66674805 8.24951172 C-118.74812862 8.17118858 -117.8295092 8.09286545 -116.88305283 8.01216888 C-109.5993026 7.39982203 -102.31136155 6.84792688 -95.0222168 6.30419922 C-92.67686028 6.12775344 -90.3315082 5.95124874 -87.98616028 5.77468872 C-83.09755792 5.40760998 -78.20875637 5.04332241 -73.31982422 4.68066406 C-67.11370407 4.21977786 -60.90840295 3.74870455 -54.7032423 3.2750988 C-49.86720239 2.90771247 -45.03064838 2.5474707 -40.19393349 2.18909073 C-37.90845052 2.01861407 -35.6231513 1.84565182 -33.33806419 1.66994858 C-22.22924873 0.81837372 -11.14442531 0.09380335 0 0 Z M-33.72924805 14.96435547 C-36.1348168 15.14173193 -38.54041636 15.31869098 -40.94604492 15.49525452 C-45.95883447 15.86430987 -50.97133684 16.23698076 -55.98364258 16.61254883 C-62.39986753 17.09321658 -68.81658377 17.56690078 -75.23350525 18.03816891 C-80.18876903 18.40248949 -85.14383907 18.76938829 -90.09884644 19.13717842 C-92.46544396 19.31273933 -94.83208186 19.48775689 -97.19876099 19.66221428 C-100.50077859 19.90622646 -103.80254039 20.15344496 -107.10424805 20.40161133 C-108.55999489 20.50842728 -108.55999489 20.50842728 -110.04515076 20.61740112 C-114.95721028 20.99018147 -119.80001514 21.48346256 -124.66674805 22.24951172 C-124.99674805 23.56951172 -125.32674805 24.88951172 -125.66674805 26.24951172 C-123.12872382 28.33731408 -120.58568461 30.41891912 -118.04174805 32.49951172 C-117.32889648 33.08603516 -116.61604492 33.67255859 -115.8815918 34.27685547 C-98.64461201 48.35108667 -80.36118433 44.06400562 -59.1081543 42.75341797 C-56.54802859 42.59855154 -53.98788315 42.44401106 -51.42771912 42.28977966 C-46.08965759 41.96724131 -40.751787 41.64177398 -35.4140625 41.3137207 C-29.26288737 40.93570376 -23.11142411 40.56270164 -16.95977551 40.1924749 C-11.00463314 39.83400954 -5.04967517 39.47255835 0.90519905 39.10966301 C3.42448044 38.95632033 5.94380163 38.80362996 8.46316338 38.65161324 C11.9804877 38.43884667 15.49758861 38.22270448 19.01464844 38.00561523 C20.04700623 37.94375534 21.07936401 37.88189545 22.14300537 37.81816101 C27.57608942 37.47893864 32.93992738 36.99111478 38.33325195 36.24951172 C37.18685332 32.81031583 36.42244798 32.32001498 33.54418945 30.28857422 C32.76688477 29.73427734 31.98958008 29.17998047 31.1887207 28.60888672 C30.37016602 28.03654297 29.55161133 27.46419922 28.70825195 26.87451172 C27.91290039 26.30990234 27.11754883 25.74529297 26.2980957 25.16357422 C24.7219482 24.04551885 23.14222382 22.93248759 21.55883789 21.82470703 C20.1575956 20.83295459 18.76817593 19.82406618 17.39672852 18.79150391 C3.72757737 8.53775982 -17.75844602 13.76184931 -33.72924805 14.96435547 Z M3.56762695 53.74560547 C0.95122021 53.90062469 -1.66521515 54.05516158 -4.28167725 54.20924377 C-9.72099801 54.53044265 -15.16002615 54.85624624 -20.59887695 55.18530273 C-26.86144892 55.56417004 -33.12435291 55.93707609 -39.38748574 56.30654854 C-45.46543433 56.66510657 -51.5432123 57.02645759 -57.62090302 57.38936043 C-60.18681773 57.54252502 -62.75276084 57.69521461 -65.31873322 57.8474102 C-68.89745286 58.06033652 -72.47596929 58.27639838 -76.05444336 58.4934082 C-77.10183182 58.5552681 -78.14922028 58.61712799 -79.22834778 58.68086243 C-82.04260249 58.85336755 -84.85430824 59.04994331 -87.66674805 59.24951172 C-88.51733543 59.29202623 -89.36792282 59.33454075 -90.24428558 59.37834358 C-91.43141018 59.46171376 -91.43141018 59.46171376 -92.64251709 59.54676819 C-93.32664043 59.58635179 -94.01076378 59.62593538 -94.71561813 59.66671848 C-97.60429364 60.52955213 -98.84190081 61.87668044 -100.66674805 64.24951172 C-101.26242082 66.95586874 -101.26242082 66.95586874 -101.16795349 69.98059082 C-101.17778763 71.14987625 -101.18762177 72.31916168 -101.19775391 73.52388 C-101.18808594 74.80296738 -101.17841797 76.08205475 -101.16845703 77.39990234 C-101.17224093 78.76344866 -101.17774156 80.12699114 -101.18482971 81.49052429 C-101.19879274 85.19101465 -101.187609 88.89104049 -101.1711185 92.59150505 C-101.15726877 96.46404257 -101.16372798 100.3365531 -101.16725159 104.20910645 C-101.16995378 110.71239712 -101.15647744 117.21550324 -101.13330078 123.71875 C-101.10669088 131.23738722 -101.10494385 138.75571585 -101.11668915 146.27438402 C-101.12746848 153.50711547 -101.12127867 160.7397353 -101.10713387 167.97245789 C-101.10137538 171.05053852 -101.10145564 174.12853743 -101.10619926 177.20661926 C-101.11097175 180.83136485 -101.10085654 184.45577256 -101.07924461 188.08045387 C-101.07102577 190.04533397 -101.07752688 192.01025832 -101.08444214 193.97514343 C-101.07453751 195.14442886 -101.06463287 196.31371429 -101.0544281 197.51843262 C-101.05199821 198.53458397 -101.04956831 199.55073532 -101.04706478 200.59767914 C-100.60260001 203.69679644 -99.88869011 205.06033219 -97.66674805 207.24951172 C-90.21418632 208.77324388 -82.79092369 208.12185559 -75.23999023 207.66040039 C-73.90692641 207.58435056 -72.57382574 207.50894439 -71.24069214 207.43412781 C-67.64552251 207.23032558 -64.05098103 207.01696849 -60.45650387 206.80133605 C-57.449463 206.62187524 -54.44214825 206.44726919 -51.43482137 206.27267724 C-44.34179747 205.86085889 -37.2492545 205.44140213 -30.15698242 205.0168457 C-22.84737207 204.57938846 -15.53714706 204.15364938 -8.22650409 203.73383158 C-1.9371769 203.37232094 4.35173824 203.00419411 10.64036059 202.63062268 C14.39105727 202.40784238 18.14185253 202.18741564 21.89304352 201.97310448 C26.07066924 201.73402683 30.24734546 201.48110529 34.42407227 201.22680664 C35.66365692 201.15762024 36.90324158 201.08843384 38.1803894 201.01715088 C39.31858124 200.94564316 40.45677307 200.87413544 41.62945557 200.80046082 C43.10937422 200.71278584 43.10937422 200.71278584 44.61919022 200.62333965 C47.51494627 200.22448561 49.72815184 199.5736619 52.33325195 198.24951172 C54.6141016 194.82823725 54.58426397 193.61408273 54.58721924 189.59399414 C54.59285889 188.41622406 54.59849854 187.23845398 54.60430908 186.0249939 C54.60026062 184.73138947 54.59621216 183.43778503 54.59204102 182.10498047 C54.5947508 180.73011082 54.59831167 179.35524263 54.60266113 177.9803772 C54.6117889 174.24489924 54.60823931 170.50953159 54.60190296 166.77405167 C54.59684497 162.86767526 54.60153385 158.96130841 54.60467529 155.05493164 C54.60831552 148.49444887 54.60351435 141.9340111 54.59399414 135.37353516 C54.58310947 127.78508618 54.58663501 120.19674467 54.59764695 112.6082983 C54.60671821 106.09698281 54.6080059 99.58569969 54.60276961 93.07437992 C54.59964902 89.18371379 54.59924301 85.2930982 54.60584259 81.4024353 C54.61161309 77.74495784 54.60762467 74.08761915 54.59605408 70.43015671 C54.59214102 68.44478293 54.59809568 66.45939745 54.60430908 64.47402954 C54.59584961 62.70737442 54.59584961 62.70737442 54.58721924 60.9050293 C54.58646519 59.87928299 54.58571114 58.85353668 54.58493423 57.79670715 C54.51079875 55.00645116 54.51079875 55.00645116 52.33325195 52.24951172 C49.29372887 51.97403958 46.48184574 51.9010323 43.44360352 51.96850586 C42.04962027 51.98513448 42.04962027 51.98513448 40.62747574 52.00209904 C28.2586721 52.21093847 15.91266073 52.99392442 3.56762695 53.74560547 Z " fill="#0A0A0A" transform="translate(145.666748046875,-0.24951171875)"/>
<path d="M0 0 C0.35687732 5.35315985 0.35687732 5.35315985 -1 7.8125 C-3 9 -3 9 -11 10 C-11 42.01 -11 74.02 -11 107 C-22.46551724 111.5862069 -22.46551724 111.5862069 -26.6875 111.625 C-27.53699219 111.65851563 -28.38648438 111.69203125 -29.26171875 111.7265625 C-37.88056367 109.43967925 -42.20938292 100.57536628 -46.5625 93.5 C-47.6187736 91.81646805 -48.67505549 90.13294116 -49.73207092 88.44987488 C-50.80405657 86.73928804 -51.87091411 85.02560005 -52.93652344 83.31103516 C-55.98742826 78.41558187 -59.08736018 73.55185683 -62.1875 68.6875 C-62.68386963 67.90375 -63.18023926 67.12 -63.69165039 66.3125 C-69.71287057 56.8206955 -75.87276781 47.42651106 -82 38 C-82.33 58.46 -82.66 78.92 -83 100 C-79.04 100.66 -75.08 101.32 -71 102 C-70.01 102.495 -70.01 102.495 -69 103 C-70.28328363 106.95679119 -71.43135343 108.84344907 -75 111 C-77.68212891 111.52416992 -77.68212891 111.52416992 -80.7265625 111.73046875 C-82.39912109 111.85131836 -82.39912109 111.85131836 -84.10546875 111.97460938 C-85.26691406 112.04486328 -86.42835937 112.11511719 -87.625 112.1875 C-88.76324219 112.26935547 -89.90148437 112.35121094 -91.07421875 112.43554688 C-97.72530844 112.88989801 -104.33423339 113.11087499 -111 113 C-111.125 108.21875 -111.125 108.21875 -110 106.25 C-108 105 -108 105 -100 104 C-100 75.62 -100 47.24 -100 18 C-103.63 17.67 -107.26 17.34 -111 17 C-110.63261843 10.63205284 -110.63261843 10.63205284 -107.81542969 7.81738281 C-104.67188654 5.78820008 -102.84322553 5.40321339 -99.140625 5.171875 C-98.02429688 5.09453125 -96.90796875 5.0171875 -95.7578125 4.9375 C-94.02144531 4.8446875 -94.02144531 4.8446875 -92.25 4.75 C-90.53683594 4.63398437 -90.53683594 4.63398437 -88.7890625 4.515625 C-86.55284712 4.3716847 -84.31498686 4.25107956 -82.07617188 4.15576172 C-79.06885521 4.04357354 -79.06885521 4.04357354 -76.37695312 3.66064453 C-74.01411006 3.42643984 -72.2871283 3.35656237 -70 4 C-67.32155453 6.38901345 -65.74436376 9.26660482 -64 12.375 C-62.88737278 14.21732859 -61.77268358 16.05841303 -60.65625 17.8984375 C-59.77646484 19.38102051 -59.77646484 19.38102051 -58.87890625 20.89355469 C-55.57186783 26.36116863 -52.0208326 31.66861266 -48.5 37 C-41.30237519 47.97994101 -34.15508521 58.99217661 -27 70 C-26.67 50.86 -26.34 31.72 -26 12 C-28.64 12 -31.28 12 -34 12 C-36.5 11.5 -36.5 11.5 -38 11 C-37.51802657 5.57779886 -37.51802657 5.57779886 -35.375 3.1875 C-30.05978089 0.52989044 -23.49593477 0.7592222 -17.625 0.4375 C-16.8812915 0.3950415 -16.13758301 0.35258301 -15.37133789 0.30883789 C-10.24014323 0.03021845 -5.13944387 -0.09344443 0 0 Z " fill="#070707" transform="translate(179,75)"/>
</svg>
