<?xml version="1.0" encoding="UTF-8"?>
<svg version="1.1" xmlns="http://www.w3.org/2000/svg" width="476" height="106">
<path d="M0 0 C1.90478033 1.26889445 3.77535954 2.58949725 5.625 3.9375 C6.43348389 4.29816055 7.24196777 4.65882111 8.07495117 5.03041077 C10.99775959 6.41668378 13.24565927 7.73562409 15.625 9.9375 C17.01676614 14.07790916 16.79579793 18.00731101 16.6015625 22.3359375 C16.58741302 23.52603424 16.57326355 24.71613098 16.5586853 25.94229126 C16.50280431 29.73494508 16.37737137 33.52163974 16.25 37.3125 C16.19983143 39.88663329 16.15420547 42.4608594 16.11328125 45.03515625 C16.00316389 51.33796276 15.83595361 57.63730581 15.625 63.9375 C13.00032366 65.4172435 10.37527507 66.89631943 7.75 68.375 C7.00363281 68.79587891 6.25726563 69.21675781 5.48828125 69.65039062 C4.77285156 70.05322266 4.05742188 70.45605469 3.3203125 70.87109375 C2.66047363 71.24290771 2.00063477 71.61472168 1.32080078 71.99780273 C0.10385349 72.67215202 -1.13058603 73.31529302 -2.375 73.9375 C-2.375 56.4475 -2.375 38.9575 -2.375 20.9375 C-4.025 20.2775 -5.675 19.6175 -7.375 18.9375 C-8.71847071 18.24265134 -10.04872949 17.52155639 -11.36328125 16.7734375 C-12.42192383 16.17402344 -12.42192383 16.17402344 -13.50195312 15.5625 C-14.22318359 15.15 -14.94441406 14.7375 -15.6875 14.3125 C-16.42806641 13.89226563 -17.16863281 13.47203125 -17.93164062 13.0390625 C-19.74769011 12.00801505 -21.56156533 10.97313954 -23.375 9.9375 C-21.54162223 4.43736669 -15.62035798 2.01992826 -10.66015625 -0.5390625 C-6.44946248 -2.34484354 -4.17319398 -2.12196304 0 0 Z " fill="#67BE54" transform="translate(76.375,16.0625)"/>
<path d="M0 0 C3.47208874 1.3823557 6.61858902 3.15100709 9.82421875 5.0625 C10.46939453 5.43955078 11.11457031 5.81660156 11.77929688 6.20507812 C13.36050027 7.13037493 14.93663335 8.06432681 16.51171875 9 C15.21868705 12.8790951 13.88069864 13.21628451 10.359375 15.1875 C9.28034912 15.79722656 8.20132324 16.40695313 7.08959961 17.03515625 C6.51531219 17.35500488 5.94102478 17.67485352 5.34933472 18.00439453 C3.56443092 19.00548968 1.79388621 20.02840644 0.02563477 21.05859375 C-5.28429553 24.13980071 -10.57405695 27.10947649 -16.18359375 29.625 C-23.11548863 32.78304997 -23.11548863 32.78304997 -28.48828125 38 C-30.78327865 45.44232957 -30.25511884 53.33838467 -29.48828125 61 C-30.24906982 60.68675781 -31.0098584 60.37351563 -31.79370117 60.05078125 C-34.52148289 58.92689352 -34.52148289 58.92689352 -37.6015625 58.1875 C-41.43613277 56.76416745 -44.20500467 55.41024322 -46.48828125 52 C-49.60658369 43.68607822 -50.12094461 34.19570486 -46.48828125 26 C-40.14175617 19.18010122 -31.27694162 15.44339353 -22.92138672 11.62939453 C-17.53774864 9.07425298 -12.61337629 5.85907709 -7.60375977 2.65039062 C-5.00553631 1.07964179 -3.07562904 0 0 0 Z " fill="#67BE54" transform="translate(46.48828125,0)"/>
<path d="M0 0 C5.95908579 2.25098574 11.33626947 5.44353968 16.875 8.5625 C18.55650146 9.49400879 18.55650146 9.49400879 20.27197266 10.44433594 C25.17351477 13.17833707 29.99989909 15.90653611 34.59375 19.13671875 C38.00357628 21.5206247 41.06698761 23.58001662 45 25 C49.52213975 24.11108335 52.40769533 21.77755516 56 19 C58.04374646 17.84128017 60.10614796 16.71472699 62.1875 15.625 C63.10917969 15.12226562 64.03085938 14.61953125 64.98046875 14.1015625 C65.98013672 13.55628906 65.98013672 13.55628906 67 13 C69.05805576 30.96475655 69.05805576 30.96475655 65.83691406 35.71533203 C62.40393697 38.7657387 58.21949149 40.33687879 54 42 C52.64932647 42.84798808 51.3110259 43.71691747 50 44.625 C47 46 47 46 44.67919922 45.28344727 C41.77223353 43.89089044 38.95094575 42.40499852 36.1328125 40.83984375 C34.44248901 39.90458862 34.44248901 39.90458862 32.71801758 38.95043945 C30.29441356 37.59740483 27.87891519 36.23088119 25.4675293 34.85620117 C24.25588797 34.16681851 23.04405665 33.47776969 21.83203125 32.7890625 C21.23857407 32.45133316 20.64511688 32.11360382 20.03367615 31.76564026 C16.71501873 29.89746448 13.38377925 28.21632787 9.88671875 26.7109375 C5.94234445 24.93131778 2.86509096 23.36133221 0 20 C-1.66983279 13.44466633 -0.93137952 6.62473534 0 0 Z " fill="#68BF56" transform="translate(0,60)"/>
<path d="M0 0 C5.18409683 3.76367239 7.87448043 8.06286922 9.1875 14.375 C10.01332123 21.33355926 8.69324294 27.30181591 5.1875 33.375 C1.31077429 38.02899002 -2.81047666 40.30321012 -8.8125 41.375 C-14.29846022 41.86481788 -17.92948536 40.91041145 -22.8125 38.375 C-23.8025 37.385 -24.7925 36.395 -25.8125 35.375 C-26.1425 42.635 -26.4725 49.895 -26.8125 57.375 C-29.1225 57.375 -31.4325 57.375 -33.8125 57.375 C-33.8125 37.575 -33.8125 17.775 -33.8125 -2.625 C-31.5025 -2.625 -29.1925 -2.625 -26.8125 -2.625 C-26.4825 -0.975 -26.1525 0.675 -25.8125 2.375 C-25.131875 1.75625 -24.45125 1.1375 -23.75 0.5 C-16.1246574 -5.01620529 -7.82853373 -4.80767096 0 0 Z M-23.8125 7.375 C-27.58832563 12.53529503 -27.61644208 18.22037677 -26.8125 24.375 C-25.56103687 28.09574791 -23.60147054 30.65564451 -20.6875 33.3125 C-15.47323838 35.23950973 -10.08980477 35.31562588 -4.9375 33.1875 C-1.3796789 30.15288788 1.6250238 27.1560477 2.1875 22.375 C2.60074743 16.89947149 1.83049115 13.20529417 -0.8125 8.375 C-5.66153903 3.8807687 -8.80605956 3.01371506 -15.26953125 3.09765625 C-19.04341373 3.50924712 -21.05257187 4.81701783 -23.8125 7.375 Z " fill="#5D6869" transform="translate(400.8125,34.625)"/>
<path d="M0 0 C7.45011203 6.41056151 8.00025189 11.00251895 9 21 C-2.88 21 -14.76 21 -27 21 C-23.75844373 28.61050578 -23.75844373 28.61050578 -18 33 C-12.71004814 33.61401227 -7.62696264 33.94631701 -3 31 C-2.566875 30.29875 -2.13375 29.5975 -1.6875 28.875 C0 27 0 27 3.6875 26.75 C4.780625 26.8325 5.87375 26.915 7 27 C6.08116986 31.805376 3.59222868 34.77400722 0 38 C-5.62308913 41.31588349 -11.76908991 42.02978755 -18.0703125 40.49609375 C-23.94493083 38.54161047 -28.19720797 35.54877494 -31.8125 30.4375 C-35.04154033 23.80946984 -34.97647167 16.134988 -32.8125 9.1875 C-28.94797974 2.39127472 -25.14667603 -1.33080777 -17.6875 -3.75 C-11.27614114 -4.34640548 -5.49192573 -3.49486183 0 0 Z M-23 6 C-25.02804203 8.7293276 -27 11.49898173 -27 15 C-17.76 15 -8.52 15 1 15 C0.00608894 10.03044471 -0.65388209 8.53732465 -4 5 C-10.00075367 1.37690344 -17.36690763 1.93893341 -23 6 Z " fill="#5B6567" transform="translate(449,35)"/>
<path d="M0 0 C2.5 2 2.5 2 3.5 3 C3.83 1.35 4.16 -0.3 4.5 -2 C6.81 -2 9.12 -2 11.5 -2 C11.5 12.19 11.5 26.38 11.5 41 C9.19 41 6.88 41 4.5 41 C4.17 39.35 3.84 37.7 3.5 36 C2.96375 36.61875 2.4275 37.2375 1.875 37.875 C-2.33653036 41.64321138 -6.82782176 42.44087407 -12.42578125 42.23828125 C-19.5120921 41.42422294 -23.66739203 38.58588723 -28.08984375 33.03515625 C-31.92553822 27.49943099 -32.26834789 21.54056143 -31.5 15 C-29.80377614 8.35966908 -27.46620674 3.71480797 -21.5 0 C-14.38129168 -3.42503891 -6.89443553 -4.49207852 0 0 Z M-22.3125 10.0625 C-25.03054785 14.49720965 -24.96644964 18.96407152 -24.5 24 C-23.06111824 28.15676951 -20.96412311 31.3577149 -17.4375 34.08203125 C-13.30495829 36.03998952 -8.92283662 35.70423143 -4.5 35 C-0.71434249 33.2423733 0.96853928 31.74404501 3.375 28.375 C5.29368988 22.61893035 5.36217045 17.32786021 3.25 11.625 C0.73835644 7.85753465 -1.15066033 5.44977989 -5.5 4 C-12.75384815 3.15717193 -17.32613872 4.38836475 -22.3125 10.0625 Z " fill="#5E686A" transform="translate(345.5,34)"/>
<path d="M0 0 C2.31 0 4.62 0 7 0 C7.33 6.93 7.66 13.86 8 21 C9.98 19.68 11.96 18.36 14 17 C19.94755142 15.31673073 24.5558411 16.37002098 30 19 C34.56212138 22.47117931 36.71057359 26.48775403 38 32 C38.35372854 36.84066683 38.28361621 41.6498282 38.1875 46.5 C38.16719727 48.4490625 38.16719727 48.4490625 38.14648438 50.4375 C38.11132334 53.62543412 38.06210664 56.81249599 38 60 C35.69 60 33.38 60 31 60 C30.98541748 59.18321777 30.97083496 58.36643555 30.95581055 57.52490234 C30.88113077 53.8078024 30.78453388 50.09158081 30.6875 46.375 C30.66494141 45.08980469 30.64238281 43.80460937 30.61914062 42.48046875 C30.5659668 40.61455078 30.5659668 40.61455078 30.51171875 38.7109375 C30.48553467 37.56931152 30.45935059 36.42768555 30.43237305 35.25146484 C29.87519653 31.06147225 28.66848036 27.35950252 25.3125 24.625 C20.58261002 23.34665136 16.56776053 23.31836499 12.125 25.25 C8.91052629 27.89721365 8.10579055 29.96607153 7.68115234 34.11621094 C7.64973145 35.31020508 7.61831055 36.50419922 7.5859375 37.734375 C7.54726563 39.02988281 7.50859375 40.32539062 7.46875 41.66015625 C7.43729733 43.02343284 7.40604993 44.38671418 7.375 45.75 C7.33679531 47.12893028 7.29774213 48.50783734 7.2578125 49.88671875 C7.16351996 53.25767718 7.0779178 56.62862978 7 60 C4.69 60 2.38 60 0 60 C0 40.2 0 20.4 0 0 Z " fill="#5C6768" transform="translate(269,15)"/>
<path d="M0 0 C4.77357962 4.89920013 6.09914745 9.6590329 6.3125 16.375 C6.15412343 22.52667957 5.4219843 27.29464888 1.23046875 31.9765625 C-4.21015444 37.03228501 -9.16751607 39.56749945 -16.7890625 39.3046875 C-23.15674706 38.42716207 -28.44571457 36.28007805 -32.5 31.1875 C-37.21468129 23.92181551 -37.52918078 17.35362395 -36 9 C-33.83310207 3.14937559 -30.37858747 -0.61249064 -25 -3.75 C-15.84778284 -7.56342382 -7.69110437 -6.19125181 0 0 Z M-27.8125 7.1875 C-30.06237125 12.51614243 -30.7171428 17.67940211 -28.9375 23.25 C-27.17821515 27.15952189 -25.00373058 30.24836787 -21 32 C-15.69823801 32.89151653 -11.41959193 32.6337464 -6.5 30.4375 C-2.31283027 26.35500952 -0.85755185 22.19315817 -0.625 16.4375 C-0.82209642 11.1696502 -2.55685069 7.66864139 -6 3.6875 C-9.58808112 0.66005656 -13.22149708 0.66029996 -17.71484375 0.71875 C-22.27369636 1.27983955 -24.97597682 3.76410996 -27.8125 7.1875 Z " fill="#5D6769" transform="translate(166,37)"/>
<path d="M0 0 C3 4.83870968 3 4.83870968 3 8 C-0.25 8.3125 -0.25 8.3125 -4 8 C-5.35386936 6.34997172 -6.68678142 4.6825613 -8 3 C-13.21286538 1.52466074 -16.95194548 2.18270037 -22 4 C-23.29633621 5.06645115 -23.29633621 5.06645115 -23.0625 7.5625 C-23.041875 8.366875 -23.02125 9.17125 -23 10 C-18.47284923 11.79377672 -14.03188131 13.29137796 -9.3125 14.5 C-4.45997448 15.79534913 -0.8983763 17.2325462 2.8125 20.6875 C4.5585626 24.08772717 4.53059149 27.30059819 4 31 C2.55182734 34.62043164 1.42584637 35.74630429 -1.9375 37.75 C-8.60613472 40.47189172 -15.30806808 41.11009172 -22.25 38.875 C-26.47666214 37.07803586 -28.50958231 34.84882734 -31 31 C-31.8125 27.625 -31.8125 27.625 -32 25 C-29.69 25 -27.38 25 -25 25 C-24.608125 25.94875 -24.21625 26.8975 -23.8125 27.875 C-22.28373807 31.01817633 -22.28373807 31.01817633 -19.9375 32.4375 C-14.34253782 33.50887574 -8.77112552 33.18075034 -4 30 C-3.33314062 27.54327108 -3.33314062 27.54327108 -4 25 C-7.83055533 22.14884802 -11.92378149 21.06929462 -16.5 20 C-27.1092437 17.5210084 -27.1092437 17.5210084 -30.3125 13.25 C-31.61256399 8.99524512 -31.55961335 5.36794375 -29.875 1.25 C-26.90951516 -2.30858181 -23.59477979 -3.57472539 -19.1875 -4.75 C-11.79548828 -5.32976563 -6.02730015 -4.46020211 0 0 Z " fill="#5E686A" transform="translate(257,36)"/>
<path d="M0 0 C3.98814676 3.20344195 6.16112426 6.73244631 7.125 11.75 C7.20673345 13.99353937 7.23250277 16.23936892 7.22265625 18.484375 C7.21943359 19.77988281 7.21621094 21.07539062 7.21289062 22.41015625 C7.20453598 23.77343817 7.19607104 25.13671942 7.1875 26.5 C7.18248168 27.87890465 7.17791935 29.25781104 7.17382812 30.63671875 C7.16204093 34.00785659 7.14558635 37.37890628 7.125 40.75 C4.815 40.75 2.505 40.75 0.125 40.75 C0.11041748 39.93321777 0.09583496 39.11643555 0.08081055 38.27490234 C0.00613077 34.5578024 -0.09046612 30.84158081 -0.1875 27.125 C-0.21005859 25.83980469 -0.23261719 24.55460937 -0.25585938 23.23046875 C-0.3090332 21.36455078 -0.3090332 21.36455078 -0.36328125 19.4609375 C-0.40255737 17.74849854 -0.40255737 17.74849854 -0.44262695 16.00146484 C-0.99980347 11.81147225 -2.20651964 8.10950252 -5.5625 5.375 C-10.29238998 4.09665136 -14.30723947 4.06836499 -18.75 6 C-21.96447371 8.64721365 -22.76920945 10.71607153 -23.19384766 14.86621094 C-23.22526855 16.06020508 -23.25668945 17.25419922 -23.2890625 18.484375 C-23.32773438 19.77988281 -23.36640625 21.07539062 -23.40625 22.41015625 C-23.43770267 23.77343284 -23.46895007 25.13671418 -23.5 26.5 C-23.53820469 27.87893028 -23.57725787 29.25783734 -23.6171875 30.63671875 C-23.71148004 34.00767718 -23.7970822 37.37862978 -23.875 40.75 C-26.185 40.75 -28.495 40.75 -30.875 40.75 C-30.875 26.56 -30.875 12.37 -30.875 -2.25 C-28.565 -2.25 -26.255 -2.25 -23.875 -2.25 C-23.545 -0.93 -23.215 0.39 -22.875 1.75 C-21.9675 1.110625 -21.06 0.47125 -20.125 -0.1875 C-13.69406574 -4.26866982 -6.42710972 -4.33932249 0 0 Z " fill="#5D6769" transform="translate(210.875,34.25)"/>
<path d="M0 0 C2.9043261 1.1170485 4.41013306 2.6097824 6.4375 4.9375 C-9.55219072 15.9375 -9.55219072 15.9375 -13.5625 15.9375 C-13.5625 19.5675 -13.5625 23.1975 -13.5625 26.9375 C-16.96562738 25.87874926 -19.57603231 24.92847846 -22.5625 22.9375 C-23.97439832 19.00435467 -23.99392676 15.85971268 -22.5625 11.9375 C-18.82081611 8.34928107 -13.9867836 6.11326584 -9.37133789 3.85180664 C-7.35457634 2.86532875 -7.35457634 2.86532875 -4.734375 1.18359375 C-2.5625 -0.0625 -2.5625 -0.0625 0 0 Z " fill="#5D6769" transform="translate(46.5625,29.0625)"/>
<path d="M0 0 C4.43827476 1.21540447 7.71166158 3.02638288 11.45629883 5.58032227 C17.09978244 9.71176682 17.09978244 9.71176682 23.68359375 10.69921875 C25.68398679 9.63111898 27.27054525 8.45312314 29 7 C29.66 7 30.32 7 31 7 C31.49056209 10.12733334 31.67351073 12.89148896 31 16 C28.72812455 18.57705275 26.33742084 20.16843527 23 21 C17.66058909 19.81857862 12.88231482 17.0620864 8.125 14.4375 C7.34125 14.04498047 6.5575 13.65246094 5.75 13.24804688 C3.48444826 11.98304804 1.74720918 10.92329778 0 9 C-0.66951889 5.88744942 -0.50277439 3.12880372 0 0 Z " fill="#5D6769" transform="translate(24,57)"/>
<path d="M0 0 C2.97419655 1.18967862 4.84658144 2.03027535 7.125 4.25 C7.57910156 6.88549805 7.57910156 6.88549805 7.515625 10.01171875 C7.49628906 11.68911133 7.49628906 11.68911133 7.4765625 13.40039062 C7.44304687 14.56763672 7.40953125 15.73488281 7.375 16.9375 C7.35695313 18.11634766 7.33890625 19.29519531 7.3203125 20.50976562 C7.27311859 23.42398926 7.20729077 26.33659031 7.125 29.25 C3.165 31.23 3.165 31.23 -0.875 33.25 C-0.86339844 32.54915283 -0.85179687 31.84830566 -0.83984375 31.1262207 C-0.81028847 27.9371532 -0.8420292 24.75150866 -0.875 21.5625 C-0.85566406 20.45970703 -0.83632813 19.35691406 -0.81640625 18.22070312 C-0.75104766 12.24059164 -0.75104766 12.24059164 -3.72265625 7.36474609 C-5.73498975 6.10703765 -7.66337209 5.10234578 -9.875 4.25 C-3.53493624 -0.92215728 -3.53493624 -0.92215728 0 0 Z " fill="#586365" transform="translate(59.875,36.75)"/>
<path d="M0 0 C1.9375 1.0625 1.9375 1.0625 3 3 C3.6414791 8.98713826 3.6414791 8.98713826 1.8125 11.875 C-0.57042043 13.35405406 -2.18417448 13.86591307 -5 14 C-7.75 13 -7.75 13 -10 11 C-11.0625 7.5625 -11.0625 7.5625 -11 4 C-8.19454211 -0.55886907 -5.07534236 -0.64595266 0 0 Z M-9 3 C-9.41666667 6.5 -9.41666667 6.5 -9 10 C-7.11861241 12.28930236 -7.11861241 12.28930236 -4.0625 12.375 C-0.96272019 12.28568869 -0.96272019 12.28568869 0.9375 10.3125 C2.28233625 7.38550346 2.03115662 6.01415011 1 3 C-0.81982462 0.75932778 -0.81982462 0.75932778 -3.4375 0.75 C-6.24104365 0.82032184 -6.24104365 0.82032184 -9 3 Z " fill="#9CA2A3" transform="translate(473,32)"/>
<path d="M0 0 C1.98 0 3.96 0 6 0 C6 2.31 6 4.62 6 7 C5.67 6.34 5.34 5.68 5 5 C4.01 5 3.02 5 2 5 C2 5.66 2 6.32 2 7 C1.34 7 0.68 7 0 7 C0 4.69 0 2.38 0 0 Z M2 1 C2 1.66 2 2.32 2 3 C2.99 3 3.98 3 5 3 C5 2.34 5 1.68 5 1 C4.01 1 3.02 1 2 1 Z " fill="#8C9394" transform="translate(466,35)"/>
</svg>
