<?xml version="1.0" encoding="UTF-8"?>
<svg version="1.1" xmlns="http://www.w3.org/2000/svg" width="253" height="200">
<path d="M0 0 C4.95 0 9.9 0 15 0 C15 5.61 15 11.22 15 17 C20.28 17 25.56 17 31 17 C31 11.39 31 5.78 31 0 C35.95 0 40.9 0 46 0 C46.02464296 6.67520882 46.04283267 13.3503914 46.05493164 20.02563477 C46.05997325 22.29842591 46.06680637 24.5712138 46.07543945 26.84399414 C46.08751261 30.10303551 46.09322987 33.36203417 46.09765625 36.62109375 C46.10281754 37.64400009 46.10797882 38.66690643 46.11329651 39.72080994 C46.11337204 40.66170975 46.11344757 41.60260956 46.11352539 42.57202148 C46.115746 43.40475082 46.11796661 44.23748016 46.12025452 45.09544373 C46 47 46 47 45 48 C40.33154772 48.14426614 35.67134047 48.04208415 31 48 C31 42.06 31 36.12 31 30 C25.72 30 20.44 30 15 30 C15.01160156 31.21558594 15.02320313 32.43117187 15.03515625 33.68359375 C15.04453278 35.26822764 15.05363313 36.85286318 15.0625 38.4375 C15.07087891 39.23994141 15.07925781 40.04238281 15.08789062 40.86914062 C15.0965143 42.91295221 15.0522815 44.95683902 15 47 C14.505 47.495 14.505 47.495 14 48 C9.38 48 4.76 48 0 48 C0 32.16 0 16.32 0 0 Z " fill="#BC2686" transform="translate(164,97)"/>
<path d="M0 0 C6.27 0 12.54 0 19 0 C30.01097702 28.82054661 30.01097702 28.82054661 33.6875 39.1875 C33.93064941 39.86804443 34.17379883 40.54858887 34.42431641 41.24975586 C36 45.74891852 36 45.74891852 36 48 C30.72 48 25.44 48 20 48 C19.34 46.02 18.68 44.04 18 42 C12.39 42 6.78 42 1 42 C0.67 43.98 0.34 45.96 0 48 C-5.61 48 -11.22 48 -17 48 C-15.09479428 41.47435498 -13.01953202 35.07907052 -10.64453125 28.7109375 C-10.18478157 27.46698715 -10.18478157 27.46698715 -9.71574402 26.19790649 C-8.75085873 23.58920019 -7.78176277 20.98208258 -6.8125 18.375 C-6.15141159 16.58994784 -5.49060188 14.80479243 -4.83007812 13.01953125 C-3.22377827 8.67828923 -1.61177412 4.33922809 0 0 Z M9 16 C8.49487756 17.60256108 7.99608373 19.20711792 7.5 20.8125 C7.2215625 21.70582031 6.943125 22.59914063 6.65625 23.51953125 C5.87211649 26.05573395 5.87211649 26.05573395 6 29 C8.64 29 11.28 29 14 29 C12.68 24.71 11.36 20.42 10 16 C9.67 16 9.34 16 9 16 Z " fill="#D64199" transform="translate(82,47)"/>
<path d="M0 0 C11.88 0 23.76 0 36 0 C36 4.29 36 8.58 36 13 C28.74 13 21.48 13 14 13 C14 14.32 14 15.64 14 17 C20.93 17 27.86 17 35 17 C35 21.29 35 25.58 35 30 C28.07 30 21.14 30 14 30 C14.33 31.32 14.66 32.64 15 34 C21.93 34.33 28.86 34.66 36 35 C36.09765625 44.27734375 36.09765625 44.27734375 36 47 C35 48 35 48 31.67358398 48.11352539 C30.19774445 48.11327435 28.72189903 48.10771514 27.24609375 48.09765625 C26.55906372 48.09664917 25.87203369 48.09564209 25.16418457 48.09460449 C22.58860616 48.08935776 20.01305147 48.07539659 17.4375 48.0625 C11.683125 48.041875 5.92875 48.02125 0 48 C0 32.16 0 16.32 0 0 Z " fill="#C31D83" transform="translate(77,97)"/>
<path d="M0 0 C3.67241734 3.20407262 6.05686834 6.16777486 7 11 C5.21046815 11.83790789 3.41830305 12.67019396 1.625 13.5 C0.62726563 13.9640625 -0.37046875 14.428125 -1.3984375 14.90625 C-4 16 -4 16 -6 16 C-6.5775 15.195625 -7.155 14.39125 -7.75 13.5625 C-9.79763322 10.78662774 -9.79763322 10.78662774 -12.9375 10.0625 C-16.29648985 9.99394919 -18.0868629 10.34659786 -21 12 C-24.01271181 15.01271181 -24.83417412 17.77144003 -25 22 C-23.5500457 26.34986291 -22.85115325 28.4325645 -19 31 C-14.94394357 31.46619668 -14.94394357 31.46619668 -11 31 C-9.29413425 29.37347684 -7.6222454 27.70993434 -6 26 C-1.38026815 25.87514238 2.99564109 28.86367949 7 31 C5.65486964 36.54866272 1.47386216 39.79977788 -3 43 C-9.63082189 46.33751369 -17.90203461 46.22555974 -24.92578125 44.125 C-31.40763102 41.13489024 -36.07071712 37.21321334 -39.0625 30.6796875 C-41.53522072 23.63684901 -41.80040782 17.25268743 -38.8671875 10.32421875 C-34.8766516 2.96462385 -30.25061681 -0.37703722 -22.5625 -3.3125 C-14.27733592 -4.91139131 -7.42606995 -4.31718982 0 0 Z " fill="#C62587" transform="translate(155,100)"/>
<path d="M0 0 C13.2 0 26.4 0 40 0 C40 4.29 40 8.58 40 13 C36.04 13 32.08 13 28 13 C28.00785522 14.53708618 28.00785522 14.53708618 28.01586914 16.10522461 C28.03391969 19.89395276 28.0454322 23.68267709 28.05493164 27.47143555 C28.05997174 29.11369464 28.06680378 30.75594923 28.07543945 32.39819336 C28.08751926 34.75375479 28.09323139 37.10925709 28.09765625 39.46484375 C28.10281754 40.20339096 28.10797882 40.94193817 28.11329651 41.7028656 C28.1134925 43.46898088 28.06194719 45.23497146 28 47 C27.67 47.33 27.34 47.66 27 48 C22.38 48 17.76 48 13 48 C13 36.45 13 24.9 13 13 C8.71 13 4.42 13 0 13 C0 8.71 0 4.42 0 0 Z " fill="#C41981" transform="translate(34,97)"/>
<path d="M0 0 C13.2 0 26.4 0 40 0 C40 4.29 40 8.58 40 13 C34.06 13.495 34.06 13.495 28 14 C28.00785522 15.49164673 28.00785522 15.49164673 28.01586914 17.01342773 C28.03392041 20.69033921 28.04543246 24.36724675 28.05493164 28.04418945 C28.05997157 29.63794614 28.0668035 31.23169819 28.07543945 32.82543945 C28.08751999 35.11150253 28.09323155 37.39750467 28.09765625 39.68359375 C28.10281754 40.40026718 28.10797882 41.11694061 28.11329651 41.85533142 C28.11349263 43.57063672 28.06192007 45.28581266 28 47 C27.67 47.33 27.34 47.66 27 48 C22.38 48 17.76 48 13 48 C13 36.45 13 24.9 13 13 C8.71 13 4.42 13 0 13 C0 8.71 0 4.42 0 0 Z " fill="#D6449A" transform="translate(34,47)"/>
<path d="M0 0 C4.95 0 9.9 0 15 0 C15 11.55 15 23.1 15 35 C20.94 35 26.88 35 33 35 C33.09765625 44.27734375 33.09765625 44.27734375 33 47 C32 48 32 48 28.94897461 48.11352539 C27.60008731 48.11327443 26.25119355 48.10771815 24.90234375 48.09765625 C23.60546631 48.09515869 22.30858887 48.09266113 20.97241211 48.09008789 C19.31089111 48.08098389 17.64937012 48.07187988 15.9375 48.0625 C10.678125 48.041875 5.41875 48.02125 0 48 C0 32.16 0 16.32 0 0 Z " fill="#DF1284" transform="translate(120,47)"/>
<path d="M0 0 C1.00380916 2.79035046 2.0031945 5.58214855 3 8.375 C3.42925781 9.56609375 3.42925781 9.56609375 3.8671875 10.78125 C4.13789062 11.54179688 4.40859375 12.30234375 4.6875 13.0859375 C4.93886719 13.7876709 5.19023438 14.4894043 5.44921875 15.21240234 C6 17 6 17 6 19 C0.72 19 -4.56 19 -10 19 C-10.66 17.02 -11.32 15.04 -12 13 C-17.61 13 -23.22 13 -29 13 C-29.33 14.98 -29.66 16.96 -30 19 C-35.61 19 -41.22 19 -47 19 C-44.13114754 8.09836066 -44.13114754 8.09836066 -40 5 C-37.35177845 4.24497513 -34.94410073 3.68288953 -32.25 3.25 C-31.20392578 3.06244141 -31.20392578 3.06244141 -30.13671875 2.87109375 C-28.42693324 2.5666114 -26.71374215 2.28136065 -25 2 C-25 1.67 -25 1.34 -25 1 C-24.09378906 1.01160156 -23.18757813 1.02320312 -22.25390625 1.03515625 C-14.78579377 1.0904756 -7.39813733 0 0 0 Z " fill="#E11F89" transform="translate(112,76)"/>
<path d="M0 0 C0.33 0 0.66 0 1 0 C1.10709533 11.72098848 0.99140649 23.31556633 0 35 C-3.96 35 -7.92 35 -12 35 C-12 29.39 -12 23.78 -12 18 C-17.94 18 -23.88 18 -30 18 C-30 23.94 -30 29.88 -30 36 C-34.29 36 -38.58 36 -43 36 C-43 29.73 -43 23.46 -43 17 C-38.96602387 16.44510245 -34.93181197 15.89266664 -30.89672852 15.34594727 C-29.53033332 15.16012264 -28.16411465 14.97299437 -26.7980957 14.78442383 C-17.87731928 13.55408504 -8.9874194 12.6051062 0 12 C0 8.04 0 4.08 0 0 Z " fill="#A52280" transform="translate(208,108)"/>
<path d="M0 0 C3.68706618 1.45767733 7.1911116 3.19718113 10.6875 5.0625 C9.34236964 10.61116272 5.16136216 13.86227788 0.6875 17.0625 C-5.9356736 20.39616404 -14.28757011 20.347504 -21.2734375 18.1171875 C-26.03133698 15.84539766 -30.13366886 13.30094153 -33.3125 9.0625 C-33.625 6.25 -33.625 6.25 -33.3125 4.0625 C-20.1125 1.8625 -20.1125 1.8625 -15.3125 5.0625 C-11.25644357 5.52869668 -11.25644357 5.52869668 -7.3125 5.0625 C-2.06148236 0.05571574 -2.06148236 0.05571574 0 0 Z " fill="#A62B85" transform="translate(151.3125,125.9375)"/>
<path d="M0 0 C4.95 0 9.9 0 15 0 C15 11.55 15 23.1 15 35 C14.67 35 14.34 35 14 35 C13.67 31.7 13.34 28.4 13 25 C9.37 25.66 5.74 26.32 2 27 C1.67 33.6 1.34 40.2 1 47 C11.23 47 21.46 47 32 47 C32 47.33 32 47.66 32 48 C21.44 48 10.88 48 0 48 C0 32.16 0 16.32 0 0 Z " fill="#E270AF" transform="translate(120,47)"/>
<path d="M0 0 C0.33 0 0.66 0 1 0 C1 3.96 1 7.92 1 12 C5.29 11.34 9.58 10.68 14 10 C14 9.67 14 9.34 14 9 C21.26 9 28.52 9 36 9 C36.09765625 18.27734375 36.09765625 18.27734375 36 21 C35 22 35 22 31.67358398 22.11352539 C30.19774444 22.11336629 28.72189931 22.10767314 27.24609375 22.09765625 C26.47064713 22.0962413 25.6952005 22.09482635 24.89625549 22.09336853 C22.40996506 22.08775345 19.9237634 22.07519846 17.4375 22.0625 C15.75586067 22.05748694 14.07421994 22.0529237 12.39257812 22.04882812 C8.26165671 22.03862832 4.13092818 22.01905605 0 22 C0 14.74 0 7.48 0 0 Z " fill="#AC3089" transform="translate(77,123)"/>
<path d="M0 0 C13.2 0 26.4 0 40 0 C40 4.29 40 8.58 40 13 C36.04 13 32.08 13 28 13 C28 24.22 28 35.44 28 47 C27.67 47 27.34 47 27 47 C27 35.45 27 23.9 27 12 C30.96 12 34.92 12 39 12 C38.505 9.03 38.505 9.03 38 6 C37.39003174 6.09087891 36.78006348 6.18175781 36.15161133 6.27539062 C33.3724444 6.68731465 30.59249549 7.09370704 27.8125 7.5 C26.37293945 7.71462891 26.37293945 7.71462891 24.90429688 7.93359375 C23.97294922 8.06894531 23.04160156 8.20429687 22.08203125 8.34375 C21.22843018 8.46943359 20.3748291 8.59511719 19.49536133 8.72460938 C16.97466163 9.00279637 14.53363366 9.019172 12 9 C9.80252869 9.29805007 9.80252869 9.29805007 8 10 C7.67 10.66 7.34 11.32 7 12 C8.98 12 10.96 12 13 12 C13 12.33 13 12.66 13 13 C8.71 13 4.42 13 0 13 C0 8.71 0 4.42 0 0 Z " fill="#DF3392" transform="translate(34,97)"/>
<path d="M0 0 C0.66 0.33 1.32 0.66 2 1 C2.02465288 5.68139254 2.04283739 10.36274759 2.05493164 15.04418945 C2.05997157 16.63794614 2.0668035 18.23169819 2.07543945 19.82543945 C2.08751999 22.11150253 2.09323155 24.39750467 2.09765625 26.68359375 C2.10281754 27.40026718 2.10797882 28.11694061 2.11329651 28.85533142 C2.11349263 30.57063672 2.06192007 32.28581266 2 34 C1 35 1 35 -2.16015625 35.09765625 C-3.44792969 35.08605469 -4.73570313 35.07445312 -6.0625 35.0625 C-7.35285156 35.05347656 -8.64320312 35.04445312 -9.97265625 35.03515625 C-10.97167969 35.02355469 -11.97070312 35.01195312 -13 35 C-13.02697137 32.39576408 -13.04682489 29.79180756 -13.0625 27.1875 C-13.07087891 26.44951172 -13.07925781 25.71152344 -13.08789062 24.95117188 C-13.10259828 21.70077932 -13.03531702 19.10595105 -12 16 C-6.06 15.505 -6.06 15.505 0 15 C0 10.05 0 5.1 0 0 Z " fill="#DA298D" transform="translate(60,60)"/>
<path d="M0 0 C0.66 0 1.32 0 2 0 C2.5345256 1.24420647 3.05208611 2.49570936 3.5625 3.75 C3.85253906 4.44609375 4.14257812 5.1421875 4.44140625 5.859375 C5.07831803 8.30012784 4.80248831 9.6403655 4 12 C1.77100213 12.16890918 -0.45820662 12.33503687 -2.6875 12.5 C-3.92886719 12.5928125 -5.17023438 12.685625 -6.44921875 12.78125 C-9.31499329 12.95779937 -12.13099957 13.04388528 -15 13 C-15 13.33 -15 13.66 -15 14 C-25.395 15.485 -25.395 15.485 -36 17 C-35 12 -35 12 -32.5625 10.25 C-28.64688402 8.87609966 -25.19566297 8.51189369 -21.07421875 8.30859375 C-20.38972656 8.20675781 -19.70523438 8.10492188 -19 8 C-18.67 7.34 -18.34 6.68 -18 6 C-18 7.65 -18 9.3 -18 11 C-14.535 10.505 -14.535 10.505 -11 10 C-11.04125 9.21625 -11.0825 8.4325 -11.125 7.625 C-11 5 -11 5 -9 3 C-6.8359375 2.5859375 -6.8359375 2.5859375 -4.375 2.375 C-3.55773437 2.30023438 -2.74046875 2.22546875 -1.8984375 2.1484375 C-1.27195313 2.09945312 -0.64546875 2.05046875 0 2 C0 1.34 0 0.68 0 0 Z " fill="#DC3B95" transform="translate(106,65)"/>
<path d="M0 0 C11.88 0 23.76 0 36 0 C36 4.29 36 8.58 36 13 C28.74 13 21.48 13 14 13 C14 12.67 14 12.34 14 12 C20.93 12 27.86 12 35 12 C34.67 8.7 34.34 5.4 34 2 C31.02046641 2.14017826 28.04150696 2.28686342 25.0625 2.4375 C23.78729492 2.49647461 23.78729492 2.49647461 22.48632812 2.55664062 C21.67744141 2.59853516 20.86855469 2.64042969 20.03515625 2.68359375 C19.2862915 2.72025146 18.53742676 2.75690918 17.76586914 2.79467773 C15.97538674 2.81771063 15.97538674 2.81771063 15 4 C12.25596619 4.24492203 9.5130033 4.38385297 6.76171875 4.5234375 C3.71537957 5.04911413 2.28508339 5.97002093 0 8 C0 5.36 0 2.72 0 0 Z " fill="#DE3B94" transform="translate(77,97)"/>
<path d="M0 0 C3.63 0 7.26 0 11 0 C11 4.29 11 8.58 11 13 C2.25 15.125 2.25 15.125 0 14 C0 9.38 0 4.76 0 0 Z " fill="#D53C96" transform="translate(122,49)"/>
<path d="M0 0 C0.33 0 0.66 0 1 0 C1.02730408 1.56240032 1.04653226 3.1249427 1.0625 4.6875 C1.07410156 5.55761719 1.08570313 6.42773438 1.09765625 7.32421875 C1 10 1 10 0 15 C-4.29 15 -8.58 15 -13 15 C-13.25 7.375 -13.25 7.375 -11 4 C-8.90625 3.453125 -8.90625 3.453125 -6.5 3.25 C-5.7059375 3.17265625 -4.911875 3.0953125 -4.09375 3.015625 C-2 3 -2 3 0 4 C0 2.68 0 1.36 0 0 Z " fill="#DF1B87" transform="translate(60,78)"/>
<path d="M0 0 C0.33 0 0.66 0 1 0 C1.02526945 6.6752034 1.04283268 13.35039457 1.05493164 20.02563477 C1.05997325 22.29842591 1.06680637 24.5712138 1.07543945 26.84399414 C1.08751261 30.10303551 1.09322987 33.36203417 1.09765625 36.62109375 C1.10281754 37.64400009 1.10797882 38.66690643 1.11329651 39.72080994 C1.11337204 40.66170975 1.11344757 41.60260956 1.11352539 42.57202148 C1.115746 43.40475082 1.11796661 44.23748016 1.12025452 45.09544373 C1 47 1 47 0 48 C-4.66845228 48.14426614 -9.32865953 48.04208415 -14 48 C-14 42.06 -14 36.12 -14 30 C-19.28 30 -24.56 30 -30 30 C-30 35.61 -30 41.22 -30 47 C-30.33 47 -30.66 47 -31 47 C-31 41.06 -31 35.12 -31 29 C-25.06 29 -19.12 29 -13 29 C-13 34.61 -13 40.22 -13 46 C-9.04 46 -5.08 46 -1 46 C-1.00580078 45.10788818 -1.01160156 44.21577637 -1.01757812 43.29663086 C-1.0523599 33.70741976 -0.83822239 24.14508947 -0.5 14.5625 C-0.45159165 13.13737763 -0.40341366 11.71224741 -0.35546875 10.28710938 C-0.23961786 6.85797895 -0.12070875 3.42896329 0 0 Z " fill="#CF93C1" transform="translate(209,97)"/>
<path d="M0 0 C0.33 0 0.66 0 1 0 C1 6.6 1 13.2 1 20 C-3.62 20 -8.24 20 -13 20 C-13 17.36 -13 14.72 -13 12 C-8.71 12 -4.42 12 0 12 C0 8.04 0 4.08 0 0 Z " fill="#B02F8A" transform="translate(60,125)"/>
<path d="M0 0 C0.125 5.75 0.125 5.75 -1 8 C-6.61 8 -12.22 8 -18 8 C-17.67 6.68 -17.34 5.36 -17 4 C-11.55376515 0.99901345 -6.2311345 0 0 0 Z " fill="#E52C91" transform="translate(83,87)"/>
<path d="M0 0 C0.93423645 3.01031744 1.04449911 3.86650268 0 7 C1.32 7.33 2.64 7.66 4 8 C-6.395 9.485 -6.395 9.485 -17 11 C-16 6 -16 6 -13.5625 4.25 C-9.05206672 2.66739183 -4.74965935 2.27221368 0 2 C0 1.34 0 0.68 0 0 Z " fill="#DC2E8F" transform="translate(87,71)"/>
<path d="M0 0 C0 2.97 0 5.94 0 9 C-3.96 9 -7.92 9 -12 9 C-12 6.36 -12 3.72 -12 1 C-7.95858806 0.36605303 -4.0934693 -0.12404452 0 0 Z " fill="#992981" transform="translate(208,134)"/>
<path d="M0 0 C0.33 0 0.66 0 1 0 C1 5.94 1 11.88 1 18 C-3.29 18 -7.58 18 -12 18 C-12 16.02 -12 14.04 -12 12 C-8.04 12 -4.08 12 0 12 C0 8.04 0 4.08 0 0 Z " fill="#981E7E" transform="translate(177,126)"/>
<path d="M0 0 C0.33 0 0.66 0 1 0 C0.67 2.97 0.34 5.94 0 9 C-3.63 9.66 -7.26 10.32 -11 11 C-12.1577506 7.52674819 -12.06866652 4.63932552 -12 1 C-11.67 1.99 -11.34 2.98 -11 4 C-5.555 3.505 -5.555 3.505 0 3 C0 2.01 0 1.02 0 0 Z " fill="#DB2A8D" transform="translate(133,63)"/>
<path d="M0 0 C0.33 0 0.66 0 1 0 C1.02465288 4.68139254 1.04283739 9.36274759 1.05493164 14.04418945 C1.05997157 15.63794614 1.0668035 17.23169819 1.07543945 18.82543945 C1.08751999 21.11150253 1.09323155 23.39750467 1.09765625 25.68359375 C1.10281754 26.40026718 1.10797882 27.11694061 1.11329651 27.85533142 C1.11349263 29.57063672 1.06192007 31.28581266 1 33 C0 34 0 34 -3.16015625 34.09765625 C-4.44792969 34.08605469 -5.73570313 34.07445312 -7.0625 34.0625 C-8.35285156 34.05347656 -9.64320312 34.04445312 -10.97265625 34.03515625 C-11.97167969 34.02355469 -12.97070312 34.01195312 -14 34 C-14 33.34 -14 32.68 -14 32 C-9.71 32 -5.42 32 -1 32 C-0.67 21.44 -0.34 10.88 0 0 Z " fill="#F093C5" transform="translate(61,61)"/>
<path d="M0 0 C-0.33 1.32 -0.66 2.64 -1 4 C-2.48113281 4.30744141 -2.48113281 4.30744141 -3.9921875 4.62109375 C-5.27351563 4.89050781 -6.55484375 5.15992187 -7.875 5.4375 C-9.78925781 5.83775391 -9.78925781 5.83775391 -11.7421875 6.24609375 C-14.86460244 6.8347826 -14.86460244 6.8347826 -17 8 C-16.34 6.02 -15.68 4.04 -15 2 C-12.87528825 1.6648342 -10.75022095 1.33192171 -8.625 1 C-7.44164063 0.814375 -6.25828125 0.62875 -5.0390625 0.4375 C-2 0 -2 0 0 0 Z " fill="#DA3B95" transform="translate(89,69)"/>
<path d="M0 0 C0.33 1.32 0.66 2.64 1 4 C-3.0527516 4.98248524 -6.83861737 5.08159574 -11 5 C-11.33 5.99 -11.66 6.98 -12 8 C-11.67 5.69 -11.34 3.38 -11 1 C-5.555 0.505 -5.555 0.505 0 0 Z " fill="#D83392" transform="translate(59,71)"/>
<path d="M0 0 C3.96 0 7.92 0 12 0 C12 1.32 12 2.64 12 4 C8.04 4 4.08 4 0 4 C0 2.68 0 1.36 0 0 Z " fill="#E10B81" transform="translate(48,89)"/>
<path d="M0 0 C6.27 0 12.54 0 19 0 C18.67 0.99 18.34 1.98 18 3 C12.06 3 6.12 3 0 3 C0 2.01 0 1.02 0 0 Z " fill="#DC63AA" transform="translate(82,47)"/>
</svg>
