<svg width="518" height="518" viewBox="0 0 518 518" fill="none" xmlns="http://www.w3.org/2000/svg">
<path d="M508 259C508 121.481 396.519 10 259 10C121.481 10 10 121.481 10 259C10 396.519 121.481 508 259 508V518C115.958 518 0 402.042 0 259C0 115.958 115.958 0 259 0C402.042 0 518 115.958 518 259C518 402.042 402.042 518 259 518V508C396.519 508 508 396.519 508 259Z" fill="#E55E38"/>
<path d="M79 99C79 109.493 70.2696 118 59.5 118C48.7304 118 40 109.493 40 99C40 88.5066 48.7304 80 59.5 80C70.2696 80 79 88.5066 79 99Z" fill="#E55E38"/>
<path d="M350.53 170C378.505 170 401.183 188.949 401.183 220.653C401.183 248.629 378.505 271.307 350.53 271.307V273.129H236.833V170H350.53ZM261.249 187.856V253.086H351.259V253.085C369.188 252.987 383.692 238.423 383.692 220.471C383.692 202.519 369.188 187.955 351.259 187.857V187.856H261.249Z" fill="#E55E38"/>
<path d="M352.885 258.794L352.882 258.791L352.881 258.79C352.876 258.795 352.704 258.954 346.886 264.383C340.891 269.977 340.89 269.976 340.89 269.976L340.893 269.979L340.908 269.995L340.976 270.069C341.038 270.136 341.133 270.239 341.257 270.374C341.506 270.644 341.871 271.044 342.326 271.549C343.237 272.56 344.501 273.982 345.904 275.623C348.779 278.983 351.983 282.961 354.02 286.128C356.784 290.426 359.192 295.797 361.56 301.87C362.714 304.829 363.82 307.854 364.95 310.941L365.01 311.105C366.148 314.217 367.314 317.398 368.52 320.462C370.891 326.486 373.644 332.661 377.195 337.626C380.772 342.628 384.846 345.628 392 346.936C399.745 348.351 405.262 345.802 409 342.846C412.738 339.89 416.5 333.5 416.5 333.5L410.5 322C409.499 322.813 405.506 327.803 404.869 328.41C403.891 329.343 402.918 330.196 401.883 330.905C399.878 332.279 398.04 332.868 395.916 332.48C394.598 332.239 392.82 331.283 390.533 328.086C388.219 324.85 386.063 320.257 383.779 314.455C382.657 311.606 381.559 308.61 380.41 305.47L380.306 305.188C379.201 302.166 378.049 299.018 376.838 295.913C374.361 289.56 371.48 282.961 367.811 277.257C365.14 273.104 361.329 268.427 358.366 264.963C356.85 263.191 355.489 261.659 354.506 260.568C354.013 260.022 353.613 259.584 353.333 259.28C353.194 259.127 353.084 259.008 353.007 258.926C352.969 258.884 352.939 258.852 352.917 258.829L352.892 258.802L352.885 258.794Z" fill="#E55E38"/>
<path d="M102 170H121.678V345.283H102V170Z" fill="#E55E38"/>
<path d="M121.678 253.086H236.833V273.129H121.678V253.086Z" fill="#E55E38"/>
<path d="M236.833 273.129H261.249V345.283H236.833V273.129Z" fill="#E55E38"/>
</svg>
